<svg xmlns="http://www.w3.org/2000/svg" xmlns:xlink="http://www.w3.org/1999/xlink" viewBox="0 0 510.66 400.13"><defs><style>.cls-1{fill:none;}.cls-2{fill:#638df7;}.cls-3{fill:#fec40c;}.cls-4{fill:#f1f2f2;}.cls-5{clip-path:url(#clip-path);}.cls-6{fill:#222b54;}.cls-12,.cls-13,.cls-16,.cls-17,.cls-18,.cls-6,.cls-8{fill-rule:evenodd;}.cls-7{fill:#f4a086;}.cls-8{fill:#0a3c5f;}.cls-9{fill:#ad2b5e;}.cls-10{fill:#f7b690;}.cls-11{fill:#cc346f;}.cls-12{fill:#18898d;}.cls-13{fill:#222b56;}.cls-14{fill:#3c79a6;}.cls-15{fill:#a2d1eb;}.cls-16{fill:url(#linear-gradient);}.cls-17{fill:url(#linear-gradient-2);}.cls-18{fill:url(#linear-gradient-3);}.cls-19{fill:#88e500;}</style><clipPath id="clip-path" transform="translate(-1.6 -15.76)"><path class="cls-1" d="M498,216.35C520,137.5,465.41,27.21,386.19,6.54c-42.25-11-255.7-13.31-311.26,35.84C-14.87,121.83.64,122.54,1.61,246.61c.81,104,181.55,200.17,356.9,115.09C444.62,319.92,484,266.42,498,216.35Z"/></clipPath><linearGradient id="linear-gradient" x1="-4097.84" y1="162.41" x2="-4061.76" y2="162.41" gradientTransform="matrix(-1, 0, 0, 1, -3690.97, 0)" gradientUnits="userSpaceOnUse"><stop offset="0" stop-color="#75bfff"/><stop offset="1" stop-color="#97d1ff"/></linearGradient><linearGradient id="linear-gradient-2" x1="-4164.71" y1="203.09" x2="-4071.52" y2="203.09" xlink:href="#linear-gradient"/><linearGradient id="linear-gradient-3" x1="-4197.84" y1="159.83" x2="-4146.98" y2="159.83" xlink:href="#linear-gradient"/></defs><title>Asset 4</title><g id="Layer_2" data-name="Layer 2"><g id="Layer_1-2" data-name="Layer 1"><path class="cls-2" d="M498,216.35c22-78.85-26-160-105.21-180.69C350.5,24.63,288.53,16.85,233,66,143.17,145.45.64,122.54,1.61,246.61c.81,104,181.55,200.17,356.9,115.09C444.62,319.92,484,266.42,498,216.35Z" transform="translate(-1.6 -15.76)"/><circle class="cls-3" cx="258.58" cy="21.99" r="21.99"/><path class="cls-4" d="M258.52,46.22a2,2,0,0,1-1.32-.61l-7.72-7.85a2.06,2.06,0,0,1,2.94-2.89l6.22,6.34,9.28-9.78a2.06,2.06,0,0,1,3,2.84L260.16,45.59a2.08,2.08,0,0,1-1.47.64Z" transform="translate(-1.6 -15.76)"/><path class="cls-4" d="M258.46,86.07a1.35,1.35,0,0,1-.84-2.41l6.62-5.22-6.69-6a1.35,1.35,0,1,1,1.81-2l7.87,7.12a1.34,1.34,0,0,1,.45,1,1.37,1.37,0,0,1-.52,1l-7.87,6.21A1.37,1.37,0,0,1,258.46,86.07Z" transform="translate(-1.6 -15.76)"/><path class="cls-4" d="M266.33,250.2a1.35,1.35,0,0,1,.83,2.41l-6.61,5.22,6.68,6a1.35,1.35,0,1,1-1.81,2l-7.87-7.12a1.35,1.35,0,0,1,.07-2.06l7.87-6.21A1.38,1.38,0,0,1,266.33,250.2Z" transform="translate(-1.6 -15.76)"/><g class="cls-5"><path class="cls-6" d="M122.06,398.75c2.38,5,5.61,10.65,10.31,12.05,3.25,1,12.4-5.18,14.23-7.65s-3.85-121.63-7.94-128.88c-5.5-9.74-48.87,3.7-47.38,20.59,1.91,21.58,8.06,44.54,15.36,65.94A358.65,358.65,0,0,0,122.06,398.75Z" transform="translate(-1.6 -15.76)"/><path class="cls-7" d="M68.25,509.37a31.89,31.89,0,0,0,14.23-1.15l-1-16.78a4.2,4.2,0,0,0-.47-2,3.81,3.81,0,0,0-2.68-1.4c-3.88-.68-9.78-.9-9.91,3.95C68.31,497.75,68.33,503.56,68.25,509.37Z" transform="translate(-1.6 -15.76)"/><path class="cls-7" d="M146.91,509.37A30.94,30.94,0,0,0,161,508.22q-1.56-8.39-3.11-16.78a4.73,4.73,0,0,0-.73-2,4.42,4.42,0,0,0-2.86-1.4c-4-.68-9.89-.9-9.4,3.95C145.48,497.75,146.24,503.56,146.91,509.37Z" transform="translate(-1.6 -15.76)"/><path class="cls-6" d="M145.33,385c-6.2-9.9-21.12-16.68-27.39.49-9.57,26.2,20.77,75.19,25.28,106.83h16.25C159.92,489.29,148.76,390.53,145.33,385Z" transform="translate(-1.6 -15.76)"/><path class="cls-8" d="M66.71,303.28c4,3.11,9.19,3.59,14.09,3.59,40.38,0,63.75-13.13,58.17-31.68-5.74-19.05-41.88-16-60.75-9.84-4.07,1.33-10,2.61-12.78,6.41C61.41,277.26,57.11,295.71,66.71,303.28Z" transform="translate(-1.6 -15.76)"/><path class="cls-7" d="M122,172.65c1.31,18.56,5,37.58,15.39,53,2.25,3.32,5.52,6.77,9.51,6.35a8,8,0,0,0,5.62-3.83,18.63,18.63,0,0,0,2.28-6.61c3.38-18.13-2.16-36.62-7.67-54.22-2.27-7.25-5.29-20.09-12.67-24-7.69-4.07-11.56,8.51-12.27,13.64A76.18,76.18,0,0,0,122,172.65Z" transform="translate(-1.6 -15.76)"/><path class="cls-9" d="M121.06,146.28c.35-3.07,1.18-6.69,4-8s6.23.65,8.57,2.75c14.18,12.72,19.55,30.67,22.12,49.94l-34,2.1A180.12,180.12,0,0,1,121.06,146.28Z" transform="translate(-1.6 -15.76)"/><path class="cls-8" d="M70.15,398.75c1.36,5,3.46,10.65,7.87,12.05,3.06,1,13.44-5.18,15.77-7.65s21.06-102.44,18.43-109.7A27.62,27.62,0,0,0,90.71,276c-13.24-2.11-28.48,2-30.39,18.89-2.44,21.58-.93,44.54,2,65.94A302.8,302.8,0,0,0,70.15,398.75Z" transform="translate(-1.6 -15.76)"/><path class="cls-10" d="M180.19,174.33c2.25-1.62,5-3.32,7.62-2.36,2.2.81,3.38,3.34,3.32,5.68S162.87,226,151,230.77c-6,2.41-10.69-.92-13.11-6.17C134.48,217.29,172,180.22,180.19,174.33Z" transform="translate(-1.6 -15.76)"/><path class="cls-8" d="M97.08,385c-3.84-9.88-19-17.69-27.51.49-13.68,29.28-5.33,73-2.8,106.83H83C84.19,489.29,99.21,390.53,97.08,385Z" transform="translate(-1.6 -15.76)"/><path class="cls-11" d="M143.34,152.38c4.11,6.09,2.62,14.76,1.6,21.79-2.2,15.06-7.37,29.64-10.4,44.58s-3.81,30.79,2.54,44.89c1,2.21,2.18,4.41,2.38,6.78a6,6,0,0,1-3.22,6.09,11.27,11.27,0,0,1-4.61.62L68,276.71a7.7,7.7,0,0,1-4.07-.76c-2.55-1.59-1.67-5-.75-7.68,6.12-17.67.89-36.69-4.66-54.5s-12.27-39.51-9.22-58c7.48-9.14,22.78-30.35,53.12-30.35C123.72,125.43,139.65,146.92,143.34,152.38Z" transform="translate(-1.6 -15.76)"/><path class="cls-7" d="M38.76,192.28a87.36,87.36,0,0,1,25.8-42.42c2.24-2,5.29-4.05,8.07-2.87a5.61,5.61,0,0,1,3,3.74,15.54,15.54,0,0,1,.34,4.91c-.76,19.21-4.25,38.19-7.74,57.1-1.06,5.8-2.16,11.69-4.67,17S56.9,240,51.38,242.05c-2.9,1.1-5.77-1.94-8.43-4-2.15-1.67-6.33-7.88-6.87-10.3-1.93-8.61-.56-11.88.16-20.67A86,86,0,0,1,38.76,192.28Z" transform="translate(-1.6 -15.76)"/><path class="cls-12" d="M33.93,198.38a1.37,1.37,0,0,0,0,.36C33.9,198.62,33.92,198.5,33.93,198.38Z" transform="translate(-1.6 -15.76)"/><path class="cls-11" d="M76.48,146.28c-.16-3.07-.75-6.69-3.52-8s-8.34,1.26-10.81,3.35c-15,12.72-23.31,30.07-27.09,49.34L72.82,193A181.26,181.26,0,0,0,76.48,146.28Z" transform="translate(-1.6 -15.76)"/><path class="cls-10" d="M113.73,222.32c1.88-2.35,1.09-6-1-8.2s-60,1.43-70,4.93c-3,1.07-6.44,2.52-7.41,5.59-.87,2.73.6,5.65,2.32,8,2.89,3.86,7,7.92,11.59,9.74,3.14,1.26,5.65-.7,8.57-1.69C68.56,237,112.53,223.83,113.73,222.32Z" transform="translate(-1.6 -15.76)"/><path class="cls-10" d="M142.8,207.71c.68-1,1.3-2.37.56-3.32a2.13,2.13,0,0,0-2.11-.58,9.82,9.82,0,0,0-2.11.91c-3.56,1.75-7.7,1.57-11.65,1.89a44.19,44.19,0,0,0-24.29,9.8c-5.86,4.81,5.38,10.05,9.84,9.13,7.28-1.52,15-4.25,21-8.71A38.65,38.65,0,0,0,142.8,207.71Z" transform="translate(-1.6 -15.76)"/><path class="cls-13" d="M129.13,95.38c-1,1.69-2.3,1.24-2.23-.72.2-6.24.42-7.22-2.4-12.83-1.56-3.08-2.06-3.34-.64-4.39C128.57,74,137.49,81.38,129.13,95.38Z" transform="translate(-1.6 -15.76)"/><path class="cls-7" d="M111,104.16c-2.08-9.17-9-11.32-13.06-9.12-2.58,17.17-5.22,24.8-12,34.16,8.37,5.37,22.65,4.37,25.74,0C111.81,127.83,112,108.9,111,104.16Z" transform="translate(-1.6 -15.76)"/><path class="cls-10" d="M102.68,79.67c6.34-7.86,19.22-6.45,23.87,3.26,4.27,8.88-.41,27.65-4.09,31.56-6.45,6.83-20.12-1-22-6.12C97.64,100.87,97.34,86.27,102.68,79.67Z" transform="translate(-1.6 -15.76)"/><path class="cls-13" d="M106,82.23c.39,1.44-3,20.44-3.51,20.22-1.87-.77-4.24-6.1-7.76-5.9-1.13.06-2.68.79-2.72-1.46-.28-14.28-.84-13.55,1.7-14.86C99.34,77.34,105.31,79.68,106,82.23Z" transform="translate(-1.6 -15.76)"/><path class="cls-13" d="M90.4,73.32c11.65-8.18,30.75-11.27,36.28-8,8.23,4.84,2.18,18.66-.91,19.42-1.41.35-2.71-.76-3.91-1.58-5.69-3.89-10.79-.92-15.08-.13C99.19,84.41,80.48,80.29,90.4,73.32Z" transform="translate(-1.6 -15.76)"/><path class="cls-10" d="M91.65,94.36a9,9,0,0,0,2,6.48C97.79,106,102,99,101,94.71,99.87,89.56,92.24,88.1,91.65,94.36Z" transform="translate(-1.6 -15.76)"/><path class="cls-8" d="M192,517.58c.21-2.32-2-4.25-4.27-4.79s-4.64-.13-7-.16a18.81,18.81,0,0,1-16.17-10,4.84,4.84,0,0,0-1.62-2.16,3.15,3.15,0,0,0-3.38.62c-.95.78-1.61,1.83-2.47,2.69a8.3,8.3,0,0,1-5.92,2.38c-1.83,0-3.87-1.43-5.63-.5-1.55.81-2,2.95-2.36,4.48-.67,2.63-1.28,5.29-1.93,7.93a10.76,10.76,0,0,0-.32,1.8h12.68a17.67,17.67,0,0,0,1.32-4.25c0,1,.45,3.46,1.1,4.25h34.85A4,4,0,0,0,192,517.58Z" transform="translate(-1.6 -15.76)"/><path class="cls-8" d="M88.81,517.58c.09-2.32-.88-4.25-1.88-4.79s-2.55-4.44-4.62-10.14c-.94-2.61-6.21-3.34-8.84,1.15-.85,1.46-1.64,2.41-2.6,2.38-.8,0-1.7-1.43-2.47-.5s-.87,2.95-1,4.48c-.3,2.63-.57,5.29-.85,7.93-.06.58-.12,1.19-.14,1.8h22A7.1,7.1,0,0,0,88.81,517.58Z" transform="translate(-1.6 -15.76)"/><path class="cls-7" d="M186.13,157.54c2.74-2.42,6.57-4,10.09-3a9.55,9.55,0,0,1,6.44,7.29,13.69,13.69,0,0,1-2,9.79c-1.78,2.91-8.57,8.67-15.88,6.67-4.48-1.23-5.19-4.29-4.83-8.36A19.43,19.43,0,0,1,186.13,157.54Z" transform="translate(-1.6 -15.76)"/><path class="cls-10" d="M188.77,166.09l-11.65,1.06a52.79,52.79,0,0,0,1.31,9c.64,3.15,12.29,4.06,12.7,1.54C191.48,175.45,189.84,169.59,188.77,166.09Z" transform="translate(-1.6 -15.76)"/><path class="cls-14" d="M182.6,172.24h14.09a2.13,2.13,0,0,0,1.93-1.51l8.61-29.91a1.11,1.11,0,0,0-1.09-1.51H192.05a2.13,2.13,0,0,0-1.93,1.51l-8.61,29.91A1.11,1.11,0,0,0,182.6,172.24Z" transform="translate(-1.6 -15.76)"/><path class="cls-15" d="M181.22,172.24h14.1a2.13,2.13,0,0,0,1.93-1.51l8.61-29.91a1.11,1.11,0,0,0-1.09-1.51H190.68a2.15,2.15,0,0,0-1.94,1.51l-8.6,29.91A1.1,1.1,0,0,0,181.22,172.24Z" transform="translate(-1.6 -15.76)"/><path class="cls-13" d="M182.38,170.62h12.71a1.93,1.93,0,0,0,1.74-1.36l7.76-27a1,1,0,0,0-1-1.36H190.9a1.93,1.93,0,0,0-1.74,1.36l-7.76,27A1,1,0,0,0,182.38,170.62Z" transform="translate(-1.6 -15.76)"/><path class="cls-10" d="M180.25,167.46c2.81-3.42,6.7-9.06,8.45-11.16a12.85,12.85,0,0,0,1.43-1.62,1.62,1.62,0,0,0-.08-2c-.69-.62-1.77-.16-2.57.32-3.85,2.34-8,5-9.63,9.15a12.74,12.74,0,0,0-.73,5S180.4,168,180.25,167.46Z" transform="translate(-1.6 -15.76)"/><path class="cls-10" d="M193.6,170.41a8.91,8.91,0,0,0-.78,2.26,2.25,2.25,0,0,0,.78,2.15c.87.59,2.05.21,3-.27a19.91,19.91,0,0,0,9.72-11.15c.78-2.26,1-5.14-.81-6.71-1.64-1.44-4.31-1.05-6,.28C194.73,160.59,195.67,165.53,193.6,170.41Z" transform="translate(-1.6 -15.76)"/><path class="cls-7" d="M404.79,169.68c-1.32,18.66-5,37.76-15.47,53.24-2.26,3.34-5.55,6.8-9.56,6.38a8,8,0,0,1-5.64-3.85,18.41,18.41,0,0,1-2.29-6.64c-3.4-18.22,2.16-36.8,7.7-54.49,2.28-7.28,5.32-20.18,12.73-24.11,7.73-4.1,11.62,8.55,12.33,13.7A76.26,76.26,0,0,1,404.79,169.68Z" transform="translate(-1.6 -15.76)"/><path class="cls-16" d="M405.68,143.18c-.36-3.08-1.18-6.72-4.05-8.06s-6.26.65-8.61,2.76c-14.25,12.78-19.65,30.82-22.23,50.18L405,190.17A180.57,180.57,0,0,0,405.68,143.18Z" transform="translate(-1.6 -15.76)"/><path class="cls-6" d="M408.64,396.88c-2.38,5-5.63,10.71-10.35,12.11-3.27,1-12.46-5.21-14.3-7.69s3.86-122.22,8-129.51c5.52-9.78,49.11,3.73,47.6,20.69-1.91,21.69-8.09,44.76-15.42,66.27A360,360,0,0,1,408.64,396.88Z" transform="translate(-1.6 -15.76)"/><path class="cls-7" d="M462.72,508a32.07,32.07,0,0,1-14.3-1.15q.48-8.43,1-16.86a4.25,4.25,0,0,1,.47-2.06,3.83,3.83,0,0,1,2.69-1.4c3.9-.69,9.83-.91,10,4C462.66,496.37,462.64,502.21,462.72,508Z" transform="translate(-1.6 -15.76)"/><path class="cls-7" d="M383.68,508a31.09,31.09,0,0,1-14.15-1.15L372.65,490a4.66,4.66,0,0,1,.74-2.06,4.42,4.42,0,0,1,2.87-1.4c4-.69,9.94-.91,9.45,4C385.12,496.37,384.35,502.21,383.68,508Z" transform="translate(-1.6 -15.76)"/><path class="cls-6" d="M385.27,383.1c6.22-10,21.22-16.77,27.52.49,9.61,26.32-8.45,75.56-13,107.35H371.06C370.6,487.86,381.82,388.62,385.27,383.1Z" transform="translate(-1.6 -15.76)"/><path class="cls-8" d="M464.26,301c-4,3.13-9.23,3.61-14.16,3.61-40.57,0-64.05-13.2-58.44-31.84,5.76-19.15,42.08-16.05,61-9.88,4.09,1.32,10.05,2.61,12.84,6.43C469.59,274.8,473.92,293.34,464.26,301Z" transform="translate(-1.6 -15.76)"/><path class="cls-8" d="M460.81,396.88c-1.37,5-3.47,10.71-7.91,12.11-3.07,1-13.51-5.21-15.85-7.69s-21.16-102.94-18.51-110.23a27.73,27.73,0,0,1,21.61-17.57c13.31-2.12,28.62,2,30.54,19,2.45,21.69.93,44.76-2.07,66.27A302.08,302.08,0,0,1,460.81,396.88Z" transform="translate(-1.6 -15.76)"/><path class="cls-8" d="M433.75,383.1c3.85-9.93,19.1-17.78,27.64.49,13.75,29.42,5.36,73.38,2.82,107.35h-24.6C437.59,448.52,431.61,388.62,433.75,383.1Z" transform="translate(-1.6 -15.76)"/><path class="cls-8" d="M338.39,516.29c-.21-2.33,2-4.27,4.29-4.81s4.66-.13,7-.16a18.94,18.94,0,0,0,16.25-10,4.76,4.76,0,0,1,1.63-2.17,3.16,3.16,0,0,1,3.4.62c.95.78,1.61,1.84,2.48,2.71a8.35,8.35,0,0,0,5.95,2.38c1.83,0,3.89-1.43,5.65-.5,1.56.82,2,3,2.37,4.51.68,2.64,1.3,5.31,1.94,8a10.11,10.11,0,0,1,.33,1.81H377c-.6-.84-1.08-3.27-1.33-4.27-.05,1-.45,3.47-1.11,4.27h-35A4,4,0,0,1,338.39,516.29Z" transform="translate(-1.6 -15.76)"/><path class="cls-8" d="M442.06,516.29c-.09-2.33.88-4.27,1.89-4.81s2.56-4.46,4.64-10.19c1-2.62,6.24-3.35,8.88,1.16.86,1.46,1.66,2.41,2.62,2.38s1.71-1.43,2.48-.5.87,3,1,4.51c.3,2.64.57,5.31.86,8,.06.59.12,1.2.14,1.81H442.55A6.91,6.91,0,0,1,442.06,516.29Z" transform="translate(-1.6 -15.76)"/><path class="cls-17" d="M392.13,216c-3.05-15-8.24-29.67-10.44-44.8-1-7.07-2.53-15.78,1.6-21.9,3.71-5.48,19.72-27.08,41.11-27.08,30.49,0,43.35,12.42,47.64,27.13,3.07,18.57,2,43.88-3.53,61.64-5.32,17.07.34,35.25,5.22,72.94H385.67C386,262.56,395.17,231,392.13,216Z" transform="translate(-1.6 -15.76)"/><path class="cls-10" d="M503.47,182.67a87.83,87.83,0,0,0-33.61-36.88c-2.6-1.56-6-3-8.5-1.28a5.69,5.69,0,0,0-2.22,4.27,16.1,16.1,0,0,0,.61,4.91c4.45,18.79,11.54,36.84,18.61,54.82,2.17,5.52,4.38,11.11,7.89,15.91,7.91,10.82,24.53,11.9,25.84-3.82.73-8.83-.89-15.31-3.29-23.83A87.14,87.14,0,0,0,503.47,182.67Z" transform="translate(-1.6 -15.76)"/><path class="cls-18" d="M457.42,144.56c-.43-3.06-2.77-13-.3-14.86,23.75,9.52,40.34,27.83,49.74,50.93L470,190A181.87,181.87,0,0,1,457.42,144.56Z" transform="translate(-1.6 -15.76)"/><path class="cls-10" d="M431,226.71c-2,2.3-1.3,6,.73,8.27s60.29.59,70.42-2.59c3.08-1,6.55-2.32,7.64-5.36,1-2.72-.42-5.7-2.07-8.07-2.77-4-6.8-8.19-11.31-10.17-3.12-1.37-5.7.51-8.67,1.41C476.89,213.51,432.29,225.24,431,226.71Z" transform="translate(-1.6 -15.76)"/><path class="cls-13" d="M397.3,94.37c1,1.73,2.26,1.32,2.26-.65,0-6.28-.18-7.27,2.85-12.8,1.66-3,2.17-3.29.78-4.39C398.58,72.89,389.37,80,397.3,94.37Z" transform="translate(-1.6 -15.76)"/><path class="cls-7" d="M415.83,100.86c2.09-9.22,9.06-11.38,13.12-9.17,2.6,17.25,5.24,24.92,12,34.33-8.41,5.39-22.76,4.39-25.87,0C415,124.64,414.75,105.62,415.83,100.86Z" transform="translate(-1.6 -15.76)"/><path class="cls-10" d="M424.39,79.48c-6.1-8.1-19.08-7.12-24.09,2.47-4.58,8.77-.52,27.78,3.05,31.83,6.24,7.08,20.23-.31,22.32-5.39C428.73,101,429.53,86.3,424.39,79.48Z" transform="translate(-1.6 -15.76)"/><path class="cls-13" d="M421.92,104.37a3.85,3.85,0,0,1-1,2.8,2.62,2.62,0,0,1-2.42.29,10.26,10.26,0,0,1-2.23-1.21A19.68,19.68,0,0,0,406,103.31a6.54,6.54,0,0,0-4.59,1.37,6.27,6.27,0,0,0-1.63,3.59,11.68,11.68,0,0,0,.12,5,7.38,7.38,0,0,0,2.76,4.13c1.94,1.35,4.47,1.49,6.83,1.33A24.54,24.54,0,0,0,421.44,115a15.68,15.68,0,0,0,6.95-10.14,13.17,13.17,0,0,0-.46-6.2,8,8,0,0,0-3-4.37c-2.35-1.54-2.31.77-2.42,2.35C422.3,99.24,422.1,101.81,421.92,104.37Z" transform="translate(-1.6 -15.76)"/><path class="cls-13" d="M421,82c-.44,1.42,2.31,20.62,2.84,20.42,1.9-.71,4.46-6,8-5.67,1.13.11,2.66.89,2.78-1.37.77-14.33,1.31-13.58-1.2-15C427.82,77.26,421.75,79.41,421,82Z" transform="translate(-1.6 -15.76)"/><path class="cls-13" d="M436.94,73.53c-11.42-8.61-30.5-12.37-36.16-9.29-8.43,4.58-2.82,18.66.25,19.54,1.41.39,2.74-.68,4-1.46,5.85-3.71,10.87-.55,15.15.38C427.73,84.37,446.67,80.87,436.94,73.53Z" transform="translate(-1.6 -15.76)"/><path class="cls-10" d="M435,94.62a9.07,9.07,0,0,1-2.19,6.44c-4.38,5-8.35-2.1-7.23-6.41C426.88,89.51,434.59,88.3,435,94.62Z" transform="translate(-1.6 -15.76)"/><path class="cls-10" d="M425.46,223.61c-1.41-.35-3.5-.27-3.64,1.18-.08.86.7,1.56,1.48,1.93a6.15,6.15,0,0,1,2.24,1.29c1,1.14.39,3-.79,3.93a8.5,8.5,0,0,1-4.23,1.32l-12.07,1.49c-1.67.21-3.71.73-4.08,2.37-.27,1.2.55,2.36,1.4,3.24a19,19,0,0,0,26.68.65,13.93,13.93,0,0,0,4.39-7.6C438.24,225.22,431.44,225.09,425.46,223.61Z" transform="translate(-1.6 -15.76)"/><path class="cls-10" d="M345.19,175c-2.27-1.62-5-3.33-7.66-2.37-2.21.81-3.4,3.36-3.33,5.71s28.39,48.58,40.35,53.38c6,2.42,10.74-.93,13.18-6.2C391.12,218.14,353.44,180.89,345.19,175Z" transform="translate(-1.6 -15.76)"/><path class="cls-7" d="M339.21,158.1c-2.75-2.43-6.6-4-10.14-3a9.61,9.61,0,0,0-6.47,7.33,13.75,13.75,0,0,0,2,9.83c1.79,2.92,8.62,8.71,16,6.7,4.5-1.23,5.21-4.31,4.86-8.4A19.57,19.57,0,0,0,339.21,158.1Z" transform="translate(-1.6 -15.76)"/><path class="cls-10" d="M336.57,166.7l11.7,1.05a52.08,52.08,0,0,1-1.32,9c-.64,3.17-12.35,4.08-12.75,1.55C333.84,176.09,335.49,170.21,336.57,166.7Z" transform="translate(-1.6 -15.76)"/><path class="cls-14" d="M342.77,172.88H328.6a2.17,2.17,0,0,1-1.94-1.52L318,141.3a1.12,1.12,0,0,1,1.09-1.52h14.17a2.17,2.17,0,0,1,1.94,1.52l8.65,30.06A1.12,1.12,0,0,1,342.77,172.88Z" transform="translate(-1.6 -15.76)"/><path class="cls-15" d="M344.15,172.88H330a2.17,2.17,0,0,1-1.95-1.52l-8.65-30.06a1.12,1.12,0,0,1,1.1-1.52h14.16a2.15,2.15,0,0,1,1.94,1.52l8.65,30.06A1.12,1.12,0,0,1,344.15,172.88Z" transform="translate(-1.6 -15.76)"/><path class="cls-13" d="M343,171.24H330.22a2,2,0,0,1-1.76-1.36l-7.79-27.1a1,1,0,0,1,1-1.37h12.77a2,2,0,0,1,1.75,1.37l7.79,27.1A1,1,0,0,1,343,171.24Z" transform="translate(-1.6 -15.76)"/><path class="cls-10" d="M345.13,168.07c-2.83-3.44-6.74-9.1-8.5-11.21a14.73,14.73,0,0,1-1.44-1.63,1.64,1.64,0,0,1,.09-2c.69-.63,1.78-.16,2.57.32,3.88,2.35,8,5,9.69,9.19a13.06,13.06,0,0,1,.73,5S345,168.56,345.13,168.07Z" transform="translate(-1.6 -15.76)"/><path class="cls-10" d="M331.71,171a8.85,8.85,0,0,1,.78,2.27,2.23,2.23,0,0,1-.78,2.15c-.87.6-2.06.21-3-.26A20,20,0,0,1,318.94,164c-.79-2.27-1-5.16.81-6.74,1.65-1.45,4.33-1.06,6.07.28C330.58,161.17,329.63,166.13,331.71,171Z" transform="translate(-1.6 -15.76)"/></g><path class="cls-4" d="M212.82,91c-1,.65-2,1.33-3,2a.9.9,0,0,0-.22,1.26.89.89,0,0,0,1.26.22c1-.68,2-1.35,3-2a.9.9,0,1,0-1-1.52Z" transform="translate(-1.6 -15.76)"/><path class="cls-4" d="M253.94,77.05c-1.22.11-2.44.24-3.64.39a.9.9,0,0,0,.11,1.8h.12c1.17-.14,2.37-.27,3.56-.37a.91.91,0,1,0-.15-1.81Z" transform="translate(-1.6 -15.76)"/><path class="cls-4" d="M222.38,85.67c-1.1.53-2.19,1.09-3.26,1.65a.91.91,0,1,0,.85,1.6c1.05-.56,2.12-1.1,3.19-1.62a.9.9,0,1,0-.78-1.63Z" transform="translate(-1.6 -15.76)"/><path class="cls-4" d="M243.09,78.64c-1.18.25-2.38.52-3.56.82a.9.9,0,0,0,.22,1.78.83.83,0,0,0,.22,0c1.15-.28,2.33-.55,3.49-.8a.9.9,0,1,0-.37-1.77Z" transform="translate(-1.6 -15.76)"/><path class="cls-4" d="M232.52,81.53c-1.15.39-2.3.81-3.44,1.24a.91.91,0,0,0,.33,1.75.87.87,0,0,0,.32-.06c1.11-.43,2.25-.84,3.37-1.22a.9.9,0,1,0-.58-1.71Z" transform="translate(-1.6 -15.76)"/><path class="cls-4" d="M204,97.46c-.93.77-1.86,1.58-2.77,2.38a.91.91,0,0,0,.61,1.58.87.87,0,0,0,.6-.23c.89-.79,1.8-1.58,2.72-2.33a.91.91,0,1,0-1.16-1.4Z" transform="translate(-1.6 -15.76)"/><path class="cls-4" d="M177.17,136.88a.85.85,0,0,0,.31.06.92.92,0,0,0,.85-.59c.42-1.12.87-2.24,1.33-3.34a.91.91,0,0,0-1.67-.7c-.47,1.11-.93,2.26-1.35,3.4A.91.91,0,0,0,177.17,136.88Z" transform="translate(-1.6 -15.76)"/><path class="cls-4" d="M174.09,147.28a.76.76,0,0,0,.21,0,.91.91,0,0,0,.88-.69c.28-1.16.58-2.32.91-3.47a.91.91,0,0,0-.62-1.12.92.92,0,0,0-1.12.63c-.33,1.17-.65,2.36-.93,3.53A.89.89,0,0,0,174.09,147.28Z" transform="translate(-1.6 -15.76)"/><path class="cls-4" d="M181.49,126.91a.86.86,0,0,0,.41.1.9.9,0,0,0,.81-.48c.54-1,1.12-2.11,1.72-3.15a.9.9,0,0,0-.34-1.24.89.89,0,0,0-1.23.34c-.61,1.06-1.2,2.14-1.76,3.21A.9.9,0,0,0,181.49,126.91Z" transform="translate(-1.6 -15.76)"/><path class="cls-4" d="M348.88,149.14a.91.91,0,0,0,.89.71H350a.91.91,0,0,0,.69-1.08c-.25-1.19-.53-2.39-.82-3.56a.91.91,0,0,0-1.76.45C348.36,146.79,348.64,148,348.88,149.14Z" transform="translate(-1.6 -15.76)"/><path class="cls-4" d="M172.3,158h.1a.91.91,0,0,0,.9-.8c.14-1.18.3-2.37.48-3.55a.9.9,0,0,0-1.78-.28c-.19,1.2-.36,2.42-.5,3.62A.91.91,0,0,0,172.3,158Z" transform="translate(-1.6 -15.76)"/><path class="cls-4" d="M350.07,156.2c.16,1.19.28,2.39.39,3.56a.9.9,0,0,0,.9.83h.08a.91.91,0,0,0,.82-1c-.1-1.19-.23-2.42-.39-3.63a.89.89,0,0,0-1-.78A.9.9,0,0,0,350.07,156.2Z" transform="translate(-1.6 -15.76)"/><path class="cls-4" d="M188.87,113.31c-.73,1-1.44,2-2.12,3a.9.9,0,0,0,.74,1.42.92.92,0,0,0,.75-.39c.67-1,1.37-2,2.08-2.92a.9.9,0,1,0-1.45-1.08Z" transform="translate(-1.6 -15.76)"/><path class="cls-4" d="M171.8,168.82a.9.9,0,0,0,.9-.9v-.34c0-1.09,0-2.17.06-3.25a.89.89,0,0,0-.87-.93.92.92,0,0,0-.94.87c0,1.08-.06,2.2-.06,3.32v.33A.9.9,0,0,0,171.8,168.82Z" transform="translate(-1.6 -15.76)"/><path class="cls-4" d="M195.94,104.93c-.84.88-1.67,1.79-2.46,2.7a.9.9,0,0,0,.68,1.5.89.89,0,0,0,.68-.31c.78-.89,1.59-1.78,2.42-2.64a.91.91,0,0,0-1.32-1.25Z" transform="translate(-1.6 -15.76)"/><path class="cls-4" d="M343.58,128.06c-.52-1.08-1.08-2.18-1.65-3.25a.91.91,0,0,0-1.6.85c.56,1,1.11,2.13,1.62,3.19a.91.91,0,0,0,1.21.42A.9.9,0,0,0,343.58,128.06Z" transform="translate(-1.6 -15.76)"/><path class="cls-4" d="M321.58,99.2a.91.91,0,0,0-1.2,1.36c.9.78,1.79,1.6,2.65,2.42a.93.93,0,0,0,.62.24.9.9,0,0,0,.66-.28.91.91,0,0,0,0-1.28C323.4,100.83,322.49,100,321.58,99.2Z" transform="translate(-1.6 -15.76)"/><path class="cls-4" d="M336.19,115.48a.9.9,0,1,0-1.48,1c.67,1,1.35,2,2,3a.89.89,0,0,0,.76.41.87.87,0,0,0,.49-.14.9.9,0,0,0,.27-1.25C337.57,117.48,336.88,116.46,336.19,115.48Z" transform="translate(-1.6 -15.76)"/><path class="cls-4" d="M329.37,106.9a.9.9,0,1,0-1.34,1.21c.79.88,1.58,1.8,2.34,2.71a.87.87,0,0,0,.69.33.91.91,0,0,0,.7-1.48C331,108.73,330.18,107.8,329.37,106.9Z" transform="translate(-1.6 -15.76)"/><path class="cls-4" d="M352.6,166.9a.9.9,0,0,0-.9-.9h0a.92.92,0,0,0-.9.92v.66c0,1.19,0,2.39-.07,3.58a.9.9,0,0,0,.86.94h0a.89.89,0,0,0,.9-.86c.05-1.22.08-2.45.08-3.65Z" transform="translate(-1.6 -15.76)"/><path class="cls-4" d="M347.75,138.19c-.39-1.13-.81-2.29-1.25-3.43a.91.91,0,1,0-1.69.65c.43,1.12.84,2.26,1.23,3.37a.89.89,0,0,0,.85.61.71.71,0,0,0,.29,0A.9.9,0,0,0,347.75,138.19Z" transform="translate(-1.6 -15.76)"/><path class="cls-4" d="M275.8,77.8c-1.2-.18-2.42-.35-3.62-.48a.9.9,0,0,0-.21,1.79c1.18.14,2.38.3,3.55.48h.14a.9.9,0,0,0,.14-1.8Z" transform="translate(-1.6 -15.76)"/><path class="cls-4" d="M286.51,80.14c-1.16-.33-2.35-.64-3.54-.92a.9.9,0,0,0-1.09.67.92.92,0,0,0,.67,1.09c1.16.27,2.33.58,3.47.9a1,1,0,0,0,.24,0,.91.91,0,0,0,.25-1.78Z" transform="translate(-1.6 -15.76)"/><path class="cls-4" d="M312.91,92.48a.91.91,0,0,0-1,1.5c1,.67,2,1.37,2.92,2.08a.89.89,0,0,0,.53.18.91.91,0,0,0,.73-.37.9.9,0,0,0-.18-1.26C314.91,93.89,313.91,93.17,312.91,92.48Z" transform="translate(-1.6 -15.76)"/><path class="cls-4" d="M306.71,88.61c-1.06-.6-2.14-1.19-3.22-1.75a.91.91,0,0,0-.83,1.61c1.06.54,2.12,1.12,3.15,1.71a.89.89,0,0,0,.45.12.88.88,0,0,0,.78-.46A.9.9,0,0,0,306.71,88.61Z" transform="translate(-1.6 -15.76)"/><path class="cls-4" d="M296.86,83.76c-1.11-.47-2.26-.92-3.4-1.35a.91.91,0,1,0-.63,1.7c1.12.41,2.24.86,3.33,1.32a.91.91,0,0,0,1.19-.49A.9.9,0,0,0,296.86,83.76Z" transform="translate(-1.6 -15.76)"/><path class="cls-4" d="M220.54,246.54c-1-.55-2.11-1.13-3.14-1.72a.9.9,0,1,0-.9,1.57c1.05.6,2.13,1.2,3.21,1.76a.86.86,0,0,0,.41.1.9.9,0,0,0,.42-1.71Z" transform="translate(-1.6 -15.76)"/><path class="cls-4" d="M200.22,232a.89.89,0,0,0-1.27,0,.9.9,0,0,0,0,1.28c.88.84,1.79,1.67,2.7,2.47a.89.89,0,0,0,.59.23.92.92,0,0,0,.68-.31.9.9,0,0,0-.08-1.28C202,233.6,201.08,232.78,200.22,232Z" transform="translate(-1.6 -15.76)"/><path class="cls-4" d="M208.42,238.91a.9.9,0,1,0-1.08,1.44c1,.73,2,1.45,3,2.14a.88.88,0,0,0,.51.16.92.92,0,0,0,.75-.39.91.91,0,0,0-.23-1.26C210.36,240.32,209.38,239.62,208.42,238.91Z" transform="translate(-1.6 -15.76)"/><path class="cls-4" d="M251.19,256c-1.18-.14-2.38-.31-3.55-.49a.91.91,0,0,0-.28,1.79c1.19.19,2.41.36,3.62.5h.11A.89.89,0,0,0,252,257,.9.9,0,0,0,251.19,256Z" transform="translate(-1.6 -15.76)"/><path class="cls-4" d="M230.36,250.94c-1.12-.42-2.24-.87-3.33-1.33a.91.91,0,0,0-1.19.48.89.89,0,0,0,.48,1.18c1.12.48,2.26.94,3.4,1.36a.9.9,0,1,0,.64-1.69Z" transform="translate(-1.6 -15.76)"/><path class="cls-4" d="M240.62,254.11c-1.15-.28-2.31-.59-3.46-.92a.91.91,0,1,0-.5,1.74c1.17.34,2.36.65,3.53.94a.82.82,0,0,0,.22,0,.9.9,0,0,0,.21-1.78Z" transform="translate(-1.6 -15.76)"/><path class="cls-4" d="M186.61,215.4a.9.9,0,1,0-1.52,1c.65,1,1.33,2,2,3a.91.91,0,0,0,1.49-1C187.92,217.4,187.25,216.4,186.61,215.4Z" transform="translate(-1.6 -15.76)"/><path class="cls-4" d="M192.92,224.09a.91.91,0,1,0-1.4,1.15c.78.94,1.58,1.88,2.38,2.77a.89.89,0,0,0,.67.3.85.85,0,0,0,.6-.23.89.89,0,0,0,.08-1.27C194.47,225.93,193.68,225,192.92,224.09Z" transform="translate(-1.6 -15.76)"/><path class="cls-4" d="M181.4,206a.9.9,0,1,0-1.63.78c.52,1.1,1.08,2.19,1.64,3.26a.91.91,0,0,0,1.6-.85C182.46,208.17,181.91,207.09,181.4,206Z" transform="translate(-1.6 -15.76)"/><path class="cls-4" d="M312.4,240.83c-1,.68-2,1.34-3,2a.91.91,0,0,0-.28,1.25.93.93,0,0,0,.77.42,1,1,0,0,0,.48-.14c1-.65,2.05-1.33,3-2a.91.91,0,0,0-1-1.49Z" transform="translate(-1.6 -15.76)"/><path class="cls-4" d="M335.07,218.13q-1,1.47-2.1,2.91a.91.91,0,0,0,.18,1.27.9.9,0,0,0,.54.18.93.93,0,0,0,.73-.36c.73-1,1.45-2,2.14-3a.91.91,0,0,0-1.49-1Z" transform="translate(-1.6 -15.76)"/><path class="cls-4" d="M328.44,226.59c-.8.9-1.61,1.79-2.43,2.64a.9.9,0,0,0,0,1.28.92.92,0,0,0,.62.25.94.94,0,0,0,.66-.28c.83-.87,1.66-1.77,2.47-2.69a.9.9,0,0,0-.07-1.28A.91.91,0,0,0,328.44,226.59Z" transform="translate(-1.6 -15.76)"/><path class="cls-4" d="M341.85,208.55a.9.9,0,0,0-1.22.39c-.55,1.05-1.13,2.1-1.73,3.14a.9.9,0,0,0,.33,1.23.82.82,0,0,0,.45.12.91.91,0,0,0,.79-.45c.61-1,1.2-2.13,1.77-3.2A.91.91,0,0,0,341.85,208.55Z" transform="translate(-1.6 -15.76)"/><path class="cls-4" d="M293.45,250.82c-1.11.42-2.24.83-3.37,1.21a.91.91,0,0,0,.57,1.72c1.16-.39,2.31-.81,3.45-1.24a.91.91,0,0,0-.65-1.69Z" transform="translate(-1.6 -15.76)"/><path class="cls-4" d="M283.2,254c-1.16.29-2.33.55-3.49.79a.9.9,0,0,0,.18,1.79l.18,0c1.18-.24,2.38-.51,3.57-.8a.91.91,0,0,0-.44-1.76Z" transform="translate(-1.6 -15.76)"/><path class="cls-4" d="M272.64,256c-1.18.15-2.38.27-3.57.36a.91.91,0,0,0-.82,1,.9.9,0,0,0,.9.83h.07c1.21-.1,2.44-.23,3.64-.37a.91.91,0,0,0-.22-1.8Z" transform="translate(-1.6 -15.76)"/><path class="cls-4" d="M320.85,234.19c-.89.79-1.81,1.57-2.73,2.33a.9.9,0,0,0-.12,1.27.87.87,0,0,0,.7.33.94.94,0,0,0,.57-.2c.94-.77,1.87-1.57,2.78-2.37a.91.91,0,0,0-1.2-1.36Z" transform="translate(-1.6 -15.76)"/><path class="cls-4" d="M303.23,246.4c-1.05.55-2.12,1.09-3.2,1.6a.92.92,0,0,0-.43,1.21.91.91,0,0,0,.82.52.92.92,0,0,0,.39-.09c1.1-.53,2.2-1.08,3.26-1.64a.9.9,0,1,0-.84-1.6Z" transform="translate(-1.6 -15.76)"/><circle class="cls-19" cx="260.92" cy="289.03" r="27.29"/><path class="cls-4" d="M252.85,308.11c-.24,0-.42-.18-.56-.54a4.22,4.22,0,0,1-.2-1.41,4.41,4.41,0,0,1,.2-1.44c.14-.36.32-.54.56-.54h3.66a8.42,8.42,0,0,0,3.54-.6,3.08,3.08,0,0,0,1.71-2h-8.91c-.24,0-.42-.18-.56-.54a4.12,4.12,0,0,1-.2-1.4,4.33,4.33,0,0,1,.2-1.44c.14-.37.32-.55.56-.55h8.89c-.55-1.56-1.93-2.35-4.13-2.35h-4.76c-.24,0-.42-.17-.56-.53a4.22,4.22,0,0,1-.2-1.41,4.41,4.41,0,0,1,.2-1.44c.14-.37.32-.55.56-.55h19.21c.51,0,.76.67.76,2s-.25,1.94-.76,1.94h-5.67a3.79,3.79,0,0,1,1.54,2.35h4.13c.51,0,.76.66.76,2s-.25,1.94-.76,1.94h-4.24a5,5,0,0,1-1.8,2.87,10.45,10.45,0,0,1-4.23,1.8,8.24,8.24,0,0,1,3.54,1.7,15.84,15.84,0,0,1,3,3.59l4,6.41a3.67,3.67,0,0,1,.67,1.73c0,.28-.24.47-.72.58a14.07,14.07,0,0,1-2.5.15,7.54,7.54,0,0,1-2.08-.21,1.55,1.55,0,0,1-.94-.7l-4.17-7a11.28,11.28,0,0,0-2.8-3.32,5.59,5.59,0,0,0-3.35-1Z" transform="translate(-1.6 -15.76)"/></g></g></svg>