<svg xmlns="http://www.w3.org/2000/svg" viewBox="0 0 471.71 353.54"><defs><style>.cls-1{isolation:isolate;}.cls-2{fill:#00b4ff;}.cls-3{fill:#d7e4ff;}.cls-4,.cls-5{fill:#ff9f36;}.cls-5{opacity:0.5;mix-blend-mode:multiply;}.cls-6{fill:#f7b690;}.cls-10,.cls-7{fill:#0a3c5f;}.cls-11,.cls-12,.cls-13,.cls-7{fill-rule:evenodd;}.cls-8{fill:#f4a086;}.cls-9{fill:#222b54;}.cls-11{fill:#ad2b5e;}.cls-12{fill:#cc346f;}.cls-13{fill:#222b56;}.cls-14{fill:#3483e2;}.cls-15{fill:#a2d1eb;}.cls-16{fill:#dee9ff;}.cls-17{fill:#f7f7f9;}.cls-18{fill:#e6e6e7;}.cls-19{fill:#8c77a3;}.cls-20{fill:#9ebac6;}.cls-21{fill:#fff;}</style></defs><title>Asset 5</title><g class="cls-1"><g id="Layer_2" data-name="Layer 2"><g id="Layer_1-2" data-name="Layer 1"><path class="cls-2" d="M467.78,174.54c6.57,27.61,5.05,57.16-5.68,83.39-14.48,35.39-45,63-82.42,70.11-20.37,3.86-39.75,13.38-60.26,17.84a329.29,329.29,0,0,1-69.84,7.39C111.74,353.27,0,269.87,0,167,0,87.53,65.85,22.2,140.88,7.19c27.84-5.57,58.65-2.26,81.35,14.8,17,12.78,28.27,32.14,45.59,44.49,43.48,31,108.6,8.29,153.85,36.65,17.08,10.71,29.42,27.82,37.61,46.24A144.76,144.76,0,0,1,467.78,174.54Z"/><path class="cls-3" d="M157.3,176.63a1,1,0,1,0-1.63,1.15c1.14,1.63,2.35,3.24,3.59,4.78a1,1,0,0,0,.83.37,1,1,0,0,0,.58-.22,1,1,0,0,0,.15-1.41C159.61,179.8,158.42,178.23,157.3,176.63Z"/><path class="cls-3" d="M159.14,74.38a1,1,0,0,0-1.6-1.2c-1.2,1.59-2.36,3.24-3.45,4.9a1,1,0,0,0,.29,1.38,1,1,0,0,0,.6.17,1,1,0,0,0,.79-.46C156.83,77.55,158,75.94,159.14,74.38Z"/><path class="cls-3" d="M150.38,164.88a1,1,0,0,0-1.8.87c.87,1.79,1.81,3.57,2.8,5.29a1,1,0,0,0,.92.5,1.06,1.06,0,0,0,.45-.13,1,1,0,0,0,.37-1.37C152.15,168.36,151.23,166.62,150.38,164.88Z"/><path class="cls-3" d="M168.19,64.16a1,1,0,0,0-1.39-1.44c-1.44,1.39-2.84,2.84-4.17,4.31a1,1,0,0,0,.07,1.41,1.05,1.05,0,0,0,.72.26,1,1,0,0,0,.69-.33C165.42,66.93,166.79,65.52,168.19,64.16Z"/><path class="cls-3" d="M149.21,91.15c.79-1.77,1.66-3.54,2.58-5.26a1,1,0,0,0-.41-1.35A1,1,0,0,0,150,85c-.93,1.76-1.82,3.57-2.64,5.38a1,1,0,0,0,.51,1.33,1,1,0,0,0,.45.08A1,1,0,0,0,149.21,91.15Z"/><path class="cls-3" d="M181,199.59c-1.62-1.07-3.23-2.21-4.79-3.38a1,1,0,0,0-1.2,1.6c1.59,1.2,3.23,2.36,4.9,3.45a1,1,0,0,0,1.38-.29A1,1,0,0,0,181,199.59Z"/><path class="cls-3" d="M166,187.16a1,1,0,1,0-1.44,1.39c1.37,1.42,2.82,2.82,4.3,4.16a.94.94,0,0,0,.72.26,1,1,0,0,0,.62-1.74C168.75,189.92,167.33,188.55,166,187.16Z"/><path class="cls-3" d="M190.92,47.2a1,1,0,0,0-1.34-.46c-1.79.88-3.56,1.82-5.28,2.81a1,1,0,0,0-.37,1.36,1,1,0,0,0,.92.5,1,1,0,0,0,.45-.13c1.67-1,3.41-1.89,5.16-2.74A1,1,0,0,0,190.92,47.2Z"/><path class="cls-3" d="M179,54.08a1,1,0,0,0-1.4-.24c-1.62,1.14-3.23,2.35-4.78,3.6A1,1,0,0,0,174,59c1.51-1.22,3.08-2.4,4.67-3.52A1,1,0,0,0,179,54.08Z"/><path class="cls-3" d="M291.18,66.29a1,1,0,0,0,.77.31,1.06,1.06,0,0,0,.65-.28,1,1,0,0,0,0-1.42c-1.38-1.43-2.83-2.83-4.3-4.16a1,1,0,0,0-1.42.07,1,1,0,0,0,.08,1.41C288.41,63.52,289.83,64.89,291.18,66.29Z"/><path class="cls-3" d="M264.18,47.33c1.77.79,3.54,1.66,5.26,2.58a1,1,0,0,0,1.36-.41,1,1,0,0,0-.42-1.36c-1.76-.93-3.57-1.82-5.38-2.64a1,1,0,0,0-.82,1.83Z"/><path class="cls-3" d="M193,206.15c-1.77-.79-3.54-1.66-5.26-2.58a1,1,0,1,0-.94,1.76c1.76.94,3.57,1.83,5.38,2.64a.93.93,0,0,0,.46.09,1,1,0,0,0,.36-1.91Z"/><path class="cls-3" d="M276.16,53.88c1.63,1.07,3.24,2.2,4.8,3.37a1,1,0,0,0,.65.2,1,1,0,0,0,.55-1.8c-1.59-1.2-3.24-2.35-4.9-3.44a1,1,0,1,0-1.1,1.67Z"/><path class="cls-3" d="M313.77,108.81c.4,1.9.74,3.84,1,5.77a1,1,0,0,0,1,.86h.09a1,1,0,0,0,.85-1.13c-.28-2-.62-4-1-5.9a1,1,0,0,0-2,.41Z"/><path class="cls-3" d="M141.72,131.08V131c-.09-1.92-.12-3.86-.09-5.76a1,1,0,0,0-1-1,1,1,0,0,0-1,1c0,1.94,0,3.92.1,5.91v.07a1,1,0,0,0,2-.09Z"/><path class="cls-3" d="M143.38,104.72a.84.84,0,0,0,.31,0,1,1,0,0,0,.92-.73c.51-1.88,1.09-3.77,1.72-5.61a1,1,0,0,0-.61-1.27,1,1,0,0,0-1.28.62c-.65,1.88-1.24,3.81-1.76,5.73A1,1,0,0,0,143.38,104.72Z"/><path class="cls-3" d="M143.45,144.62c-.4-1.9-.73-3.84-1-5.77a1,1,0,0,0-1.13-.86,1,1,0,0,0-.85,1.13c.27,2,.62,4,1,5.9a1,1,0,0,0,1,.8l.15,0A1,1,0,0,0,143.45,144.62Z"/><path class="cls-3" d="M145.38,152.18a1,1,0,1,0-1.91.58c.58,1.91,1.23,3.81,1.94,5.67a1,1,0,0,0,1,.64,1.13,1.13,0,0,0,.31-.06,1,1,0,0,0,.58-1.29C146.59,155.91,146,154,145.38,152.18Z"/><path class="cls-3" d="M141,118.32a.75.75,0,0,0,.15,0,1,1,0,0,0,.95-.89c.21-1.94.48-3.89.82-5.8a1,1,0,0,0-.82-1.15,1,1,0,0,0-1.15.81c-.35,1.95-.63,3.94-.84,5.93A1,1,0,0,0,141,118.32Z"/><path class="cls-3" d="M293.06,185.23c-1.31,1.44-2.68,2.85-4.08,4.2a1,1,0,0,0,.74,1.72,1,1,0,0,0,.65-.28c1.43-1.38,2.83-2.83,4.17-4.3a1,1,0,0,0-1.48-1.34Z"/><path class="cls-3" d="M307.77,89.12a1.12,1.12,0,0,0,.39-.1,1,1,0,0,0,.46-1.34c-.88-1.79-1.82-3.56-2.81-5.28a1,1,0,1,0-1.74,1c1,1.68,1.9,3.41,2.75,5.16A1,1,0,0,0,307.77,89.12Z"/><path class="cls-3" d="M302.8,174.14a1,1,0,0,0-1.38.29c-1.07,1.62-2.2,3.23-3.38,4.78a1,1,0,0,0,.85,1.61,1,1,0,0,0,.75-.4c1.2-1.59,2.36-3.24,3.45-4.9A1,1,0,0,0,302.8,174.14Z"/><path class="cls-3" d="M300.75,77.24a1,1,0,0,0,.77-1.58c-1.15-1.62-2.36-3.23-3.61-4.78a1,1,0,1,0-1.55,1.26c1.22,1.51,2.4,3.08,3.52,4.67A1,1,0,0,0,300.75,77.24Z"/><path class="cls-3" d="M309.31,162a1,1,0,0,0-1.32.5c-.8,1.77-1.67,3.54-2.59,5.25a1,1,0,0,0,.41,1.36,1,1,0,0,0,1.36-.41c.94-1.76,1.83-3.57,2.64-5.38A1,1,0,0,0,309.31,162Z"/><path class="cls-3" d="M259.53,208.12c-1.81.69-3.68,1.32-5.54,1.89a1,1,0,0,0,.34,2l.24,0c1.91-.59,3.82-1.24,5.67-1.94a1,1,0,1,0-.71-1.87Z"/><path class="cls-3" d="M203.82,42.29a1,1,0,0,0-1.25-.66c-1.9.58-3.81,1.23-5.66,1.94a1,1,0,0,0-.58,1.29,1,1,0,0,0,1,.64,1.13,1.13,0,0,0,.31-.06c1.81-.7,3.68-1.33,5.54-1.9A1,1,0,0,0,203.82,42.29Z"/><path class="cls-3" d="M316.23,135.3a1,1,0,0,0-1.1.89c-.21,1.93-.48,3.88-.82,5.79a1,1,0,0,0,.81,1.16l.22,0a1,1,0,0,0,.94-.83c.34-2,.63-4,.84-5.93A1,1,0,0,0,316.23,135.3Z"/><path class="cls-3" d="M317.52,122.45v-.2a1,1,0,1,0-2,.1v.19c.09,1.94.12,3.91.09,5.86a1,1,0,0,0,1,1h.07a1,1,0,0,0,.95-1C317.65,126.45,317.62,124.43,317.52,122.45Z"/><path class="cls-3" d="M313.83,148.9a1,1,0,0,0-1.23.7c-.51,1.88-1.09,3.76-1.73,5.6a1,1,0,0,0,.62,1.27,1,1,0,0,0,.38.06,1,1,0,0,0,.89-.67c.65-1.88,1.25-3.81,1.77-5.74A1,1,0,0,0,313.83,148.9Z"/><path class="cls-3" d="M312.83,102a1.11,1.11,0,0,0,.25,0,1,1,0,0,0,.66-1.24c-.58-1.9-1.23-3.81-1.94-5.67a1,1,0,0,0-1.29-.58,1,1,0,0,0-.58,1.29c.69,1.82,1.33,3.69,1.9,5.54A1,1,0,0,0,312.83,102Z"/><path class="cls-3" d="M219.24,213.27c-1.94-.2-3.89-.48-5.79-.82a1,1,0,0,0-1.16.82,1,1,0,0,0,.81,1.15c1.94.35,3.94.63,5.93.84h.15a1,1,0,0,0,.06-2Z"/><path class="cls-3" d="M217.34,39.47a1,1,0,0,0-1.13-.86c-2,.28-4,.63-5.9,1a1,1,0,0,0-.78,1.18,1,1,0,0,0,1,.8l.16,0c1.9-.4,3.84-.74,5.76-1A1,1,0,0,0,217.34,39.47Z"/><path class="cls-3" d="M205.83,210.76c-1.87-.51-3.76-1.09-5.6-1.73a1,1,0,0,0-1.28.62,1,1,0,0,0,.62,1.27c1.89.65,3.82,1.25,5.74,1.77a1.63,1.63,0,0,0,.31,0,1,1,0,0,0,.21-2Z"/><path class="cls-3" d="M230.18,39.76a1,1,0,0,0,0-2c-1.93,0-3.89,0-5.83.1h-.15a1,1,0,0,0-.95,1,1,1,0,0,0,1,1h.15c1.9-.09,3.82-.12,5.71-.09Z"/><path class="cls-3" d="M246.43,211.94c-1.9.39-3.84.73-5.77,1a1,1,0,0,0,.18,2h.09c2-.27,4-.62,5.9-1a1,1,0,0,0-.4-2Z"/><path class="cls-3" d="M232.84,213.67c-1.94.09-3.89.12-5.81.09a1,1,0,1,0,0,2c2,0,4,0,5.93-.1h0a1,1,0,0,0,.93-1A1,1,0,0,0,232.84,213.67Z"/><path class="cls-3" d="M257.3,44.51a1,1,0,0,0,.89-.67,1,1,0,0,0-.62-1.27c-1.88-.65-3.81-1.24-5.73-1.76a1,1,0,0,0-1.23.7,1,1,0,0,0,.71,1.23c1.87.51,3.76,1.08,5.6,1.72A1,1,0,0,0,257.3,44.51Z"/><path class="cls-3" d="M243.92,41.06a1,1,0,0,0,.12-2c-2-.34-4-.62-5.93-.83a1,1,0,0,0-.21,2c1.93.2,3.88.47,5.8.81A.81.81,0,0,0,243.92,41.06Z"/><path class="cls-4" d="M179.73,325.86c-5-12.25-1.8-28,9-35.6,7.7-5.39,17.62-6,26.75-8.31,33.53-8.31,56.91-38.73,88.32-53.12,27.09-12.4,60.38-11.55,85.74,4.11s41.26,46.31,37.42,75.87c-.83,6.42-5.39,15.57-9.91,24.1a38.72,38.72,0,0,1-34.21,20.63H218.14A38.52,38.52,0,0,1,188,339.05,53.89,53.89,0,0,1,179.73,325.86Z"/><path class="cls-5" d="M383.93,245.75c8.39,6.58,15.74,16.73,13.46,27.14-1.47,6.7-6.69,12-12.5,15.64-9.54,6-20.92,8.33-32.14,9.34s-22.53.78-33.72,2.12c-17.42,2.07-34.14,7.86-51.11,12.3s-34.81,7.52-52,4.07c-2.3-.46-4.76-1.16-6.15-3.05-2.64-3.58.26-8.61,3.58-11.57,9.35-8.35,22-11.64,33.87-15.69A222.83,222.83,0,0,0,302.56,258,221.55,221.55,0,0,0,327,238.29c3.06-2.85,5.84-6.91,10-7.86s10.29.29,14.56,1A72.57,72.57,0,0,1,383.93,245.75Z"/><path class="cls-6" d="M138.38,340.74a4.92,4.92,0,0,1-1.24,2.65,4.37,4.37,0,0,1-3.3.6l-7.8-.7a2.44,2.44,0,0,1-2.11-1,2.78,2.78,0,0,1,.19-2.21l2.62-6.84c.77-2,1.6-4.11,3.19-5.47,2.28-2,8.66-2.85,10.48.34C142.09,331.08,139.09,337.81,138.38,340.74Z"/><path class="cls-7" d="M96.76,351.37c-.18-2.2,1.78-4,3.81-4.53s4.13-.12,6.21-.14a16.72,16.72,0,0,0,14.4-9.43,4.57,4.57,0,0,1,1.45-2,2.68,2.68,0,0,1,3,.59c.84.73,1.43,1.72,2.2,2.54a7.15,7.15,0,0,0,5.27,2.24c1.63,0,3.45-1.34,5-.47,1.38.76,1.75,2.79,2.1,4.23.6,2.49,1.15,5,1.72,7.48a11,11,0,0,1,.29,1.7H130.94a17.06,17.06,0,0,1-1.18-4,9.91,9.91,0,0,1-1,4h-31A3.83,3.83,0,0,1,96.76,351.37Z"/><path class="cls-7" d="M123.3,319.71c-2.14-1.37-3.82-3.44-5.9-4.92-4.05-2.86-9.25-3.22-13.57-5.6A18.13,18.13,0,0,1,95,296.14a4,4,0,0,1,.63-3.37,3.44,3.44,0,0,1,3-.62c8,1.14,9.41,4.92,17.22,7.28,2.09.63,11.19,1.33,15.3,4.14,4.46,3,3.48,5.12,3.23,7.14s-2,8.55-3.92,9.6A7.3,7.3,0,0,1,123.3,319.71Z"/><path class="cls-8" d="M135.62,303.06a4.93,4.93,0,0,0,.61-2.89,4.71,4.71,0,0,0-2.2-2.66l-6.46-4.68c-.67-.48-1.48-1-2.23-.66s-1,1.12-1.16,1.85l-2,7.06c-.59,2.07-1.2,4.25-.78,6.37.61,3.06,5,8,8.35,6.75C132.75,313,134.43,305.81,135.62,303.06Z"/><path class="cls-9" d="M147.63,230.35c1.8-3.71,3.85-7.57,6.7-10.34l14.76,31.77c-5.1.5-9,4.91-13.05,13-14.66,29.48-19.92,40.5-22.61,43.07-2.05,2-12.15-2-12.46-5.08C120.09,294.17,138.68,248.85,147.63,230.35Z"/><path class="cls-10" d="M264.05,297.84c-6,2.64-33.31-3.2-39.52-5.26l-27.37-9.09c-4.35-1.45-14.43-8.05-18.6-6.09-5.66,2.66-31.33,50.78-37,56.31-1.89,1.84-13.84.17-14.31-4s15-43.69,21.23-59.4c2.38-6,4.78-12.1,8.25-17.5s8.13-10.14,13.88-12.48c8.08-3.29,75.35,16.41,78.18,19C252.75,263,270.37,295.05,264.05,297.84Z"/><path class="cls-9" d="M284.49,249.66a22.58,22.58,0,0,1,7.56,11.47c3.78,12.06-.34,26.42-9.82,34.2s-34.55,7.33-48.64-4.71c-9.33-8-.37-14.63,2.44-27,1.42-6.21,5.06-12.24,10.69-14.5,7.1-2.86,14.21,1.08,21.39.18C274.38,248.52,278.08,244.91,284.49,249.66Z"/><path class="cls-9" d="M158.37,217.17c15.69-7.15,88.46,20.43,99.6,44.46,3.65,7.88.07,16.79-4.18,23.63-6.68,10.77-17.62,7.45-26.68,2.19a353.86,353.86,0,0,1-41.54-28.22c-6.91-5.44-20.51-16.83-25.64-10.86L154.33,220A14.47,14.47,0,0,1,158.37,217.17Z"/><path class="cls-11" d="M348.34,226.67c-.77-7.08-2.67-14-2.55-21.16.08-4.3.95-8.71,3.28-12.23,1.75-2.65,6.24-6.69,9.66-5.59s5.39,8.14,6.71,11.35a113.12,113.12,0,0,1,7.71,29.73c.15,1.3.28,2.62.38,3.95l-24.91-1A47.09,47.09,0,0,0,348.34,226.67Z"/><path class="cls-8" d="M302.91,259.61c6.41-3.76,14.09-3.76,21.39-4.38s15.19-2.32,19.9-8.26c3.31-4.17,4.42-9.7,4.42-15.24l24.91,1c.59,8.08,0,16.37-3.54,23.48-5.45,11-17.07,17.22-28.65,18.88s-23.3-.61-34.78-2.86c-3.45-.68-7.65-2.15-8.09-5.84C298.13,263.48,300.5,261,302.91,259.61Z"/><path class="cls-12" d="M359.41,188.07c2.48,3.55,3.31,8.1,3.6,12.51,1.29,19.86-7.28,39.33-19.63,54.32S315.12,281,299.17,291.54c-3.1,2-6.61,4.16-10.19,3.42-5.15-1.07-7.6-7.21-9.19-12.51l-6.69-22.23c-1.18-3.9-2.36-8.05-1.37-12,1.54-6.12,7.57-9.46,12.83-12.47a135.46,135.46,0,0,0,38.28-32.86c3.67-4.59,7.09-9.45,11.38-13.38C341,183.33,352.9,178.76,359.41,188.07Z"/><path class="cls-8" d="M356.84,183.41a12,12,0,0,1,.76,3.73,3.41,3.41,0,0,1-1.73,3.12,4.35,4.35,0,0,1-2.48.07L339.52,188a26.39,26.39,0,0,0-2.23-17c-.69-1.36-1.52-2.82-1.2-4.32s1.81-2.52,3.19-3.21a38,38,0,0,1,9.66-3.29c3.78-.73,5.8-1.93,5.94,2.22C355.13,169.74,354.65,176.23,356.84,183.41Z"/><path class="cls-6" d="M362.84,146.74c2.43,4.4,2.72,10.56-.64,14.2-2,2.14-4.79,3.06-7.5,3.91l-14.5,4.56c-2.91.91-10.2-.38-12.65-2.26s0-3.9,0-7.17c.05-5.3,4.51-12.62,6.22-17.59s2-7.29,6.74-9.07C348.77,130.2,358.94,139.67,362.84,146.74Z"/><path class="cls-13" d="M367.64,164.42c-1.3,2.51-2.66,5.09-4.76,6.9s-5.15,2.7-7.56,1.4c-3.09-1.65-3.87-5.85-4.3-9.49-.51-4.41-3.81-2-4.33-6.39-.22-1.88,2.34-10.62,1.66-12.37-1.63-4.21-5.65-7-7.31-11.17-2-5.12.43-11.72,5.21-14s11.06.18,13.32,5.19c1.64,3.65,1,8.18,3,11.67,1.65,2.93,4.14,2.71,6.47,4.54C376.34,146.46,371,158.05,367.64,164.42Z"/><path class="cls-6" d="M357.91,158.92a5.76,5.76,0,0,0-4.5-6.61c-2.85-.41-6.76,9.51-5.84,10.75C352.67,164.14,356.67,162.28,357.91,158.92Z"/><path class="cls-6" d="M264.3,160c3.25,10.42,9.33,25.87,16.82,33.45s18.46,12,28.46,9.11c4.64-1.34,8.73-4.11,12.68-7.1l8,27.13a75,75,0,0,1-14,4.62c-13.12,2.84-27.65,1.13-38.33-7.42-6.94-5.55-11.82-13.58-15.08-22.11s-6.27-25.25-7.91-34.29C254.51,160.74,263.57,157.62,264.3,160Z"/><path class="cls-12" d="M326.92,191.85c5.45-4.18,11.55-8.12,18.27-8.23,15.32-.26,16.89,17.53,7.31,26.72-3.67,3.53-9,5.58-13.38,7.93-2.89,1.55-5.83,3-8.83,4.3L318,196.76C319.6,195.57,325.37,193,326.92,191.85Z"/><path class="cls-14" d="M264.84,149.55H252.29a1.94,1.94,0,0,1-1.73-1.43l-7.66-28.24a1,1,0,0,1,1-1.42h12.55a1.93,1.93,0,0,1,1.72,1.42l7.67,28.24A1,1,0,0,1,264.84,149.55Z"/><path class="cls-15" d="M266.06,149.55H253.51a1.94,1.94,0,0,1-1.72-1.43l-7.67-28.24a1,1,0,0,1,1-1.42h12.55a1.91,1.91,0,0,1,1.72,1.42L267,148.12A1,1,0,0,1,266.06,149.55Z"/><path class="cls-16" d="M265,148H253.71a1.75,1.75,0,0,1-1.55-1.29l-6.91-25.46a.94.94,0,0,1,.88-1.28h11.31a1.74,1.74,0,0,1,1.55,1.28l6.91,25.46A.93.93,0,0,1,265,148Z"/><path class="cls-6" d="M262.75,146c-.51-1.67-3.4-6.19-4.94-10.49-2.83-1-1.33,7.56-.38,8.57-3.29-.69-9.48-4.61-10.92-10.89-.58.53-2.39,3.29-2.43,4.1-.16,3.06,1.69,5.9,1.53,9-.12,2.29-1.11,3.5-.46,5.69,1,3.5,3.87,6,6.65,8.23a15.45,15.45,0,0,0,4.69,2.81C266.08,166,264.34,151.16,262.75,146Z"/><path class="cls-17" d="M117,185.85l1-67.48c0-.32.32-.52.71-.44l52.93,10.54a.64.64,0,0,1,.5.59l.09,56.79a.51.51,0,0,1-.51.51l-54,.1A.67.67,0,0,1,117,185.85Z"/><polygon class="cls-18" points="166.11 147.88 131.14 143.36 131.15 142.52 166.11 147.13 166.11 147.88"/><polygon class="cls-18" points="166.11 151.84 124.09 146.98 124.1 146.12 166.11 151.09 166.11 151.84"/><polygon class="cls-18" points="166.11 156.36 124.02 152.13 124.03 151.27 166.11 155.61 166.11 156.36"/><polygon class="cls-18" points="166.11 161.31 123.95 157.79 123.96 156.92 166.11 160.55 166.11 161.31"/><polygon class="cls-18" points="151.74 170.12 123.81 168.7 123.82 167.83 151.74 169.32 151.74 170.12"/><polygon class="cls-18" points="151.76 165.36 123.87 163.51 123.88 162.64 151.76 164.56 151.76 165.36"/><polygon class="cls-18" points="166.11 174.87 123.75 173.29 123.76 172.42 166.11 174.1 166.11 174.87"/><polygon class="cls-18" points="166.11 179.45 123.68 178.53 123.69 177.65 166.11 178.68 166.11 179.45"/><polygon class="cls-18" points="166.1 184.46 123.6 184.27 123.61 183.39 166.1 183.7 166.1 184.46"/><polygon class="cls-19" points="167.2 143.65 123.92 137.4 124.1 124.23 167.2 132.15 167.2 143.65"/><polygon class="cls-20" points="165.76 172.99 153.76 172.46 153.8 161.05 165.76 162.01 165.76 172.99"/><path class="cls-21" d="M137.46,136.14a3.45,3.45,0,0,1-1.52.07,3.83,3.83,0,0,1-2.38-1.35,3.91,3.91,0,0,1-.67-1.2,4,4,0,0,1-.23-1.42v0a3.21,3.21,0,0,1,.27-1.3,2.79,2.79,0,0,1,.7-1,2.7,2.7,0,0,1,1.06-.56,2.91,2.91,0,0,1,1.32,0,5,5,0,0,1,.76.19,3.65,3.65,0,0,1,.63.29,3,3,0,0,1,.55.38,5.38,5.38,0,0,1,.49.47l-.87.95a3.69,3.69,0,0,0-.35-.34,3.18,3.18,0,0,0-.37-.27,2.25,2.25,0,0,0-.41-.21,3.17,3.17,0,0,0-.49-.13,1.37,1.37,0,0,0-.7,0,1.44,1.44,0,0,0-.58.35,1.67,1.67,0,0,0-.4.59,2,2,0,0,0-.15.78v0a2.73,2.73,0,0,0,.13.87,2.5,2.5,0,0,0,.39.74,2.58,2.58,0,0,0,.6.54,2.17,2.17,0,0,0,.76.28,1.91,1.91,0,0,0,1.3-.2v-.95l-1.38-.22v-1.27l2.7.46,0,2.85A3.75,3.75,0,0,1,137.46,136.14Z"/><path class="cls-21" d="M144.1,136.3a1.41,1.41,0,0,1-.46.56,1.65,1.65,0,0,1-.69.28,2.65,2.65,0,0,1-.89,0,4.24,4.24,0,0,1-1.36-.47,4.62,4.62,0,0,1-1.21-1l.81-.9a4.6,4.6,0,0,0,.84.72,2.5,2.5,0,0,0,1,.37,1.07,1.07,0,0,0,.64-.06.46.46,0,0,0,.23-.42v0a.7.7,0,0,0-.05-.25.61.61,0,0,0-.18-.23,2,2,0,0,0-.36-.25l-.62-.29a9.18,9.18,0,0,1-.83-.41,2.87,2.87,0,0,1-.63-.47,1.84,1.84,0,0,1-.4-.62,2.3,2.3,0,0,1-.14-.84h0a1.8,1.8,0,0,1,.16-.79,1.37,1.37,0,0,1,.44-.54,1.63,1.63,0,0,1,.67-.29,2.77,2.77,0,0,1,.86,0,3.79,3.79,0,0,1,1.21.43,4.41,4.41,0,0,1,1,.79l-.69.95a5.1,5.1,0,0,0-.78-.6,2.27,2.27,0,0,0-.77-.31.84.84,0,0,0-.59.07.41.41,0,0,0-.19.37v0a.52.52,0,0,0,0,.28.65.65,0,0,0,.2.25,2,2,0,0,0,.4.24c.17.09.38.19.64.3a8.53,8.53,0,0,1,.81.43,3,3,0,0,1,.6.49,1.91,1.91,0,0,1,.36.59,2,2,0,0,1,.11.75v0A1.92,1.92,0,0,1,144.1,136.3Z"/><path class="cls-21" d="M148.07,132.88l0,5.1-1.28-.2,0-5.12-1.79-.31v-1.3l4.82.85v1.28Z"/><path class="cls-21" d="M154.17,138.93l-1.18-2.2-1-.16v2l-1.25-.19,0-6.33,2.58.45a2.49,2.49,0,0,1,1.54.82,2.35,2.35,0,0,1,.55,1.61h0a1.93,1.93,0,0,1-.34,1.18,1.52,1.52,0,0,1-.86.56l1.34,2.45Zm.05-4.12a1,1,0,0,0-.25-.72,1.22,1.22,0,0,0-.71-.34l-1.23-.21v1.81l1.25.2a.86.86,0,0,0,.7-.12.73.73,0,0,0,.25-.6Z"/><path class="cls-21" d="M160,133.64l.8.14,0,6.18-1.16-.19v-4.83l-.94.11-.24-1.16Z"/><path class="cls-17" d="M126,88.09l-4-64.37a.5.5,0,0,1,.61-.53l54.26,7.25a.68.68,0,0,1,.57.66l-.58,60.11a.48.48,0,0,1-.53.46l-49.7-3A.65.65,0,0,1,126,88.09Z"/><polygon class="cls-18" points="170.62 52.51 135.67 48.78 135.63 47.94 170.62 51.7 170.62 52.51"/><polygon class="cls-18" points="170.62 56.74 129.5 52.56 129.45 51.72 170.62 55.94 170.62 56.74"/><polygon class="cls-18" points="170.62 61.5 129.77 57.58 129.73 56.75 170.62 60.71 170.62 61.5"/><polygon class="cls-18" points="170.61 66.63 130.07 62.98 130.02 62.16 170.61 65.85 170.61 66.63"/><polygon class="cls-18" points="156.22 75.15 130.62 73.14 130.58 72.34 156.2 74.38 156.22 75.15"/><polygon class="cls-18" points="156.13 70.51 130.36 68.35 130.31 67.54 156.11 69.73 156.13 70.51"/><polygon class="cls-18" points="170.6 80.24 130.85 77.31 130.81 76.52 170.6 79.5 170.6 80.24"/><polygon class="cls-18" points="170.6 84.7 131.1 82 131.06 81.22 170.6 83.97 170.6 84.7"/><polygon class="cls-18" points="170.6 89.52 131.38 87.05 131.34 86.28 170.6 88.79 170.6 89.52"/><polygon class="cls-19" points="171.8 47.88 128.72 43.04 127.97 29.43 171.83 35.02 171.8 47.88"/><polygon class="cls-20" points="170.24 78.38 158.23 77.47 158.05 66.26 170.25 67.35 170.24 78.38"/><path class="cls-21" d="M140.22,40.88a3.11,3.11,0,0,1-1.46.15,3.61,3.61,0,0,1-1.3-.42,3.91,3.91,0,0,1-1-.87,4.2,4.2,0,0,1-.71-1.22,5.06,5.06,0,0,1-.3-1.47v0a3.9,3.9,0,0,1,.18-1.39,3,3,0,0,1,.62-1.08,2.49,2.49,0,0,1,2.25-.78,3.87,3.87,0,0,1,.74.15,3.62,3.62,0,0,1,.63.27,3.31,3.31,0,0,1,.55.37,5.47,5.47,0,0,1,.5.47l-.8,1.07c-.12-.12-.23-.24-.35-.34a4.33,4.33,0,0,0-.37-.27,2.57,2.57,0,0,0-.41-.19,2.4,2.4,0,0,0-.48-.11,1.25,1.25,0,0,0-.67.09,1.55,1.55,0,0,0-.54.41,1.93,1.93,0,0,0-.35.65,2.77,2.77,0,0,0-.1.84v0a2.93,2.93,0,0,0,.17.9,2.72,2.72,0,0,0,.41.75,2.2,2.2,0,0,0,.6.54,1.71,1.71,0,0,0,.74.25,1.69,1.69,0,0,0,1.24-.27l0-1-1.34-.17-.05-1.33,2.62.33.11,3A3.56,3.56,0,0,1,140.22,40.88Z"/><path class="cls-21" d="M146.7,40.72a1.47,1.47,0,0,1-.43.62,1.51,1.51,0,0,1-.67.33,2.26,2.26,0,0,1-.87,0,3.61,3.61,0,0,1-1.35-.43,4.42,4.42,0,0,1-1.22-1l.74-1a4.56,4.56,0,0,0,.86.71,2.18,2.18,0,0,0,1,.34.94.94,0,0,0,.63-.09.52.52,0,0,0,.21-.46h0a.76.76,0,0,0-.06-.27.63.63,0,0,0-.18-.24,3.25,3.25,0,0,0-.38-.24,6.65,6.65,0,0,0-.62-.28c-.3-.13-.58-.25-.83-.39a2.86,2.86,0,0,1-.64-.47,1.93,1.93,0,0,1-.42-.63,2.56,2.56,0,0,1-.17-.89v0a2.27,2.27,0,0,1,.12-.85,1.53,1.53,0,0,1,1.06-1,2.11,2.11,0,0,1,.84,0,3.35,3.35,0,0,1,1.22.38,4.09,4.09,0,0,1,1,.79l-.65,1.07a4.9,4.9,0,0,0-.8-.6,1.89,1.89,0,0,0-.78-.28.75.75,0,0,0-.57.1.46.46,0,0,0-.18.41v0a.66.66,0,0,0,.07.3.61.61,0,0,0,.21.25,1.75,1.75,0,0,0,.4.24l.65.29a7.62,7.62,0,0,1,.81.41,2.79,2.79,0,0,1,.61.49,1.91,1.91,0,0,1,.39.62,2.32,2.32,0,0,1,.14.79v0A2.23,2.23,0,0,1,146.7,40.72Z"/><path class="cls-21" d="M150.56,36.83l.13,5.49-1.29-.15-.15-5.51-1.8-.22,0-1.42,4.91.62,0,1.41Z"/><path class="cls-21" d="M157,43.06l-1.28-2.33-1-.12,0,2.19-1.28-.15-.14-6.88,2.68.34a2.47,2.47,0,0,1,1.64.8,2.62,2.62,0,0,1,.6,1.74v0A2.19,2.19,0,0,1,157.9,40a1.7,1.7,0,0,1-.88.66l1.44,2.6Zm0-4.49a1.06,1.06,0,0,0-.27-.77,1.28,1.28,0,0,0-.75-.34l-1.28-.16,0,2,1.3.16a.83.83,0,0,0,.72-.18.82.82,0,0,0,.24-.67Z"/><path class="cls-21" d="M163.09,38.48a3.25,3.25,0,0,0-.57.62l-.89-1a4.53,4.53,0,0,1,.42-.56,1.91,1.91,0,0,1,.47-.39,1.66,1.66,0,0,1,.55-.21,2.27,2.27,0,0,1,.69,0,2.38,2.38,0,0,1,.82.25,2.08,2.08,0,0,1,.63.51,2.28,2.28,0,0,1,.39.72,2.75,2.75,0,0,1,.14.88,2.86,2.86,0,0,1-.09.75,2,2,0,0,1-.28.6,2.77,2.77,0,0,1-.46.53c-.19.18-.41.36-.66.57l-.92.73,2.48.3v1.28l-4.22-.5V42.43l1.89-1.61c.18-.15.33-.29.46-.41a4.07,4.07,0,0,0,.3-.36,1.6,1.6,0,0,0,.17-.35,1.54,1.54,0,0,0,.05-.39,1,1,0,0,0-.22-.68.84.84,0,0,0-.56-.3A.86.86,0,0,0,163.09,38.48Z"/><path class="cls-17" d="M197.86,57.37,197.76.6a.56.56,0,0,1,.6-.5l54-.1a.56.56,0,0,1,.61.5l.11,56.77a.56.56,0,0,1-.61.5l-54.05.1A.57.57,0,0,1,197.86,57.37Z"/><rect class="cls-18" x="209.79" y="19.62" width="36.16" height="0.74" transform="translate(-0.04 0.43) rotate(-0.11)"/><rect class="cls-18" x="203.47" y="23.52" width="42.48" height="0.74" transform="translate(-0.04 0.42) rotate(-0.11)"/><rect class="cls-18" x="203.48" y="27.96" width="42.48" height="0.74" transform="translate(-0.05 0.42) rotate(-0.11)"/><rect class="cls-18" x="203.48" y="32.8" width="42.48" height="0.74" transform="translate(-0.06 0.42) rotate(-0.11)"/><rect class="cls-18" x="203.5" y="42.1" width="26.74" height="0.74" transform="translate(-0.08 0.41) rotate(-0.11)"/><rect class="cls-18" x="203.49" y="37.69" width="26.74" height="0.74" transform="translate(-0.07 0.41) rotate(-0.11)"/><rect class="cls-18" x="203.51" y="45.98" width="42.48" height="0.74" transform="translate(-0.09 0.42) rotate(-0.11)"/><rect class="cls-18" x="203.52" y="50.41" width="42.48" height="0.74" transform="translate(-0.1 0.42) rotate(-0.11)"/><rect class="cls-18" x="203.53" y="55.25" width="42.48" height="0.74" transform="translate(-0.1 0.42) rotate(-0.11)"/><rect class="cls-19" x="203.19" y="4.6" width="44" height="11.43" transform="translate(-0.02 0.42) rotate(-0.11)"/><rect class="cls-20" x="232.37" y="34.22" width="13.21" height="10.66" transform="translate(-0.07 0.45) rotate(-0.11)"/><path class="cls-21" d="M211.53,13.18a3.73,3.73,0,0,1-1.46.27,3.26,3.26,0,0,1-1.27-.23,2.77,2.77,0,0,1-1.63-1.61,3,3,0,0,1-.23-1.22v0a3,3,0,0,1,.23-1.2,3.06,3.06,0,0,1,1.64-1.65,3.22,3.22,0,0,1,1.26-.24,4,4,0,0,1,.72.06,3.75,3.75,0,0,1,.62.15,3.16,3.16,0,0,1,.52.26,3.27,3.27,0,0,1,.48.35l-.83,1a2.78,2.78,0,0,0-.34-.26,3.9,3.9,0,0,0-.35-.19,1.68,1.68,0,0,0-.4-.11,2.26,2.26,0,0,0-.47,0,1.53,1.53,0,0,0-.67.15,2,2,0,0,0-.54.4,1.9,1.9,0,0,0-.37.59,2,2,0,0,0-.13.73h0a2.06,2.06,0,0,0,.13.76,1.86,1.86,0,0,0,.38.6,1.78,1.78,0,0,0,.57.4,1.9,1.9,0,0,0,.73.14,2,2,0,0,0,1.23-.36v-.86H210V9.92h2.59v2.59A4.47,4.47,0,0,1,211.53,13.18Z"/><path class="cls-21" d="M218,12.38a1.71,1.71,0,0,1-.45.58,2,2,0,0,1-.69.35,2.71,2.71,0,0,1-.88.13,3.87,3.87,0,0,1-1.34-.24,3.25,3.25,0,0,1-1.19-.72l.77-.93a3.47,3.47,0,0,0,.84.53,2.26,2.26,0,0,0,.94.2,1.14,1.14,0,0,0,.64-.15.47.47,0,0,0,.22-.41v0a.56.56,0,0,0,0-.23.51.51,0,0,0-.18-.18,1.87,1.87,0,0,0-.37-.17,5.24,5.24,0,0,0-.61-.18,6.68,6.68,0,0,1-.82-.25,2.33,2.33,0,0,1-.63-.33,1.36,1.36,0,0,1-.39-.5,1.68,1.68,0,0,1-.14-.75h0a1.78,1.78,0,0,1,.15-.74,1.59,1.59,0,0,1,.43-.57,1.79,1.79,0,0,1,.65-.36,2.57,2.57,0,0,1,.85-.13,3.55,3.55,0,0,1,1.2.19,3.47,3.47,0,0,1,1,.57l-.68,1a4.38,4.38,0,0,0-.78-.43,2,2,0,0,0-.77-.16.94.94,0,0,0-.58.15A.47.47,0,0,0,215,9V9a.51.51,0,0,0,.06.25.46.46,0,0,0,.2.19,1.57,1.57,0,0,0,.4.16l.63.18a6.4,6.4,0,0,1,.81.27,2.17,2.17,0,0,1,.6.36,1.48,1.48,0,0,1,.37.49,1.67,1.67,0,0,1,.12.67v0A1.83,1.83,0,0,1,218,12.38Z"/><path class="cls-21" d="M222.05,8.59v4.76h-1.32V8.59h-1.81V7.38h4.94V8.59Z"/><path class="cls-21" d="M228.49,13.35l-1.28-1.91h-1v1.91h-1.31v-6h2.73a2.43,2.43,0,0,1,1.65.52,1.82,1.82,0,0,1,.6,1.45v0a1.84,1.84,0,0,1-.36,1.18,2,2,0,0,1-.92.67L230,13.35Zm0-3.93a.75.75,0,0,0-.28-.64,1.19,1.19,0,0,0-.75-.21h-1.31v1.71h1.33a1.09,1.09,0,0,0,.75-.23.79.79,0,0,0,.26-.61Z"/><path class="cls-21" d="M233.55,8.51V7.38h4v1l-1.52,1.44a3.38,3.38,0,0,1,.6.17,1.55,1.55,0,0,1,.87.8,1.58,1.58,0,0,1,.14.71,2,2,0,0,1-.15.79,1.77,1.77,0,0,1-.43.62,1.85,1.85,0,0,1-.68.41,2.58,2.58,0,0,1-.9.14,3,3,0,0,1-1.37-.28,3,3,0,0,1-1-.75l.9-.87a2.59,2.59,0,0,0,.64.54,1.69,1.69,0,0,0,.8.18.93.93,0,0,0,.61-.2.64.64,0,0,0,.24-.53.65.65,0,0,0-.31-.57,1.58,1.58,0,0,0-.86-.2h-.55l-.2-.83,1.42-1.43Z"/><path class="cls-21" d="M243.79,12.43a1.23,1.23,0,0,1-.45.51,2.09,2.09,0,0,1-.71.31,3.68,3.68,0,0,1-.91.1h-2.84v-6h2.77a2.24,2.24,0,0,1,1.44.42,1.38,1.38,0,0,1,.53,1.13h0a1.59,1.59,0,0,1-.07.46,1.27,1.27,0,0,1-.17.35,1.31,1.31,0,0,1-.24.28,2.61,2.61,0,0,1-.3.2,2,2,0,0,1,.81.54,1.33,1.33,0,0,1,.3.93v0A1.46,1.46,0,0,1,243.79,12.43Zm-1.47-3.28a.53.53,0,0,0-.22-.46,1.14,1.14,0,0,0-.64-.15h-1.3V9.8h1.21a1.36,1.36,0,0,0,.69-.15.52.52,0,0,0,.26-.48Zm.33,2.39a.56.56,0,0,0-.23-.48,1.28,1.28,0,0,0-.74-.17h-1.52V12.2h1.56a1.26,1.26,0,0,0,.69-.16.53.53,0,0,0,.24-.49Z"/><path class="cls-17" d="M277.46,104.65l-.1-56.77a.64.64,0,0,1,.52-.58l53.27-8.82c.38-.06.69.14.7.46l.88,65.51a.65.65,0,0,1-.7.59l-54,.12A.51.51,0,0,1,277.46,104.65Z"/><polygon class="cls-18" points="324.17 62.46 287.99 66.39 287.99 65.63 324.16 61.63 324.17 62.46"/><polygon class="cls-18" points="324.22 66.86 282.33 70.94 282.33 70.19 324.21 66.02 324.22 66.86"/><polygon class="cls-18" points="324.28 71.86 282.35 75.43 282.35 74.68 324.27 71.03 324.28 71.86"/><polygon class="cls-18" points="324.34 77.34 282.36 80.34 282.36 79.59 324.33 76.51 324.34 77.34"/><polygon class="cls-18" points="307.77 88.66 282.39 89.8 282.38 89.05 307.76 87.85 307.77 88.66"/><polygon class="cls-18" points="307.73 83.84 282.37 85.3 282.37 84.55 307.72 83.04 307.73 83.84"/><polygon class="cls-18" points="324.52 92.35 282.4 93.77 282.39 93.02 324.51 91.5 324.52 92.35"/><polygon class="cls-18" points="324.58 97.41 282.41 98.31 282.41 97.55 324.57 96.56 324.58 97.41"/><polygon class="cls-18" points="324.64 102.95 282.42 103.27 282.42 102.51 324.63 102.11 324.64 102.95"/><polygon class="cls-19" points="325.5 57.42 282.09 62.66 282.06 51.17 325.35 44.56 325.5 57.42"/><polygon class="cls-20" points="324.05 90.3 309.97 90.85 309.87 79.16 323.91 78.19 324.05 90.3"/><path class="cls-21" d="M292.16,58.42a3.14,3.14,0,0,1-1.34.46,2.56,2.56,0,0,1-1.18-.09,2.17,2.17,0,0,1-.9-.54,2.56,2.56,0,0,1-.59-.92,3.36,3.36,0,0,1-.21-1.22v0a3.73,3.73,0,0,1,.21-1.25,3.82,3.82,0,0,1,.59-1.09,3.49,3.49,0,0,1,.9-.81,3,3,0,0,1,1.15-.41,3.25,3.25,0,0,1,.68,0,2.44,2.44,0,0,1,.56.08,2.38,2.38,0,0,1,.49.19,3.52,3.52,0,0,1,.45.3l-.77,1.14a3,3,0,0,0-.31-.22,2.41,2.41,0,0,0-.33-.15,2.2,2.2,0,0,0-.37-.07,2.13,2.13,0,0,0-.43,0,1.43,1.43,0,0,0-.62.24,2.07,2.07,0,0,0-.5.48,2.34,2.34,0,0,0-.33.65,2.37,2.37,0,0,0-.12.76h0a2.24,2.24,0,0,0,.12.76,1.61,1.61,0,0,0,.35.58,1.38,1.38,0,0,0,.52.34,1.35,1.35,0,0,0,.67,0,1.94,1.94,0,0,0,1.15-.52v-.88l-1.22.16V55.24l2.4-.33V57.6A4.42,4.42,0,0,1,292.16,58.42Z"/><path class="cls-21" d="M298.31,56.8a2,2,0,0,1-.42.67,2.6,2.6,0,0,1-.66.46,3,3,0,0,1-.84.23,3.18,3.18,0,0,1-1.27-.08,2.84,2.84,0,0,1-1.13-.61l.73-1.06a2.86,2.86,0,0,0,.79.45,1.9,1.9,0,0,0,.9.09,1.18,1.18,0,0,0,.6-.24.56.56,0,0,0,.21-.46v0a.56.56,0,0,0,0-.23.46.46,0,0,0-.17-.17,1.73,1.73,0,0,0-.35-.13,4.51,4.51,0,0,0-.59-.11,7,7,0,0,1-.77-.15,2,2,0,0,1-.6-.28,1.13,1.13,0,0,1-.37-.46,2,2,0,0,1-.14-.76h0a2.22,2.22,0,0,1,.14-.79,2.28,2.28,0,0,1,.4-.65,2.42,2.42,0,0,1,.62-.47,2.57,2.57,0,0,1,.8-.24,2.92,2.92,0,0,1,1.15,0,3,3,0,0,1,1,.45l-.65,1.13a3.57,3.57,0,0,0-.75-.35,1.81,1.81,0,0,0-.73-.06.93.93,0,0,0-.55.23.57.57,0,0,0-.18.41v0a.53.53,0,0,0,.06.26.46.46,0,0,0,.19.17,1.71,1.71,0,0,0,.38.12l.6.1a3.8,3.8,0,0,1,.77.18,1.68,1.68,0,0,1,.58.3,1.23,1.23,0,0,1,.35.46,2,2,0,0,1,.13.69v0A2.11,2.11,0,0,1,298.31,56.8Z"/><path class="cls-21" d="M302.18,52.29l0,5.05-1.28.16,0-5-1.76.24V51.44l4.82-.69V52Z"/><path class="cls-21" d="M308.64,56.53l-1.3-1.9-1,.14v2L305,57l0-6.38,2.73-.39a2.13,2.13,0,0,1,1.69.32A1.77,1.77,0,0,1,310,52v0a2.25,2.25,0,0,1-.35,1.32,2.4,2.4,0,0,1-.94.85l1.51,2.12Zm0-4.25a.73.73,0,0,0-.28-.65,1,1,0,0,0-.77-.12l-1.31.18v1.84l1.34-.18a1.21,1.21,0,0,0,.75-.36.94.94,0,0,0,.26-.69Z"/><path class="cls-21" d="M318,48.7l0,4,.86-.12V53.8l-.86.12,0,1.42-1.33.17V54.09l-3.06.4-.23-1,3.4-4.63Zm-1.31,2.17L315,53.14l1.67-.23Z"/></g></g></g></svg>