<?xml version="1.0" encoding="utf-8"?>
<!-- Generator: Adobe Illustrator 23.1.0, SVG Export Plug-In . SVG Version: 6.00 Build 0)  -->
<svg version="1.1" xmlns="http://www.w3.org/2000/svg" xmlns:xlink="http://www.w3.org/1999/xlink" x="0px" y="0px"
	 viewBox="0 0 500 500" style="enable-background:new 0 0 500 500;" xml:space="preserve">
<style type="text/css">
	.st0{fill:#63A59D;}
	.st1{fill:#40CB76;}
	.st2{fill:#425964;}
	.st3{fill:#DBDCDD;}
	.st4{fill:#F1F1F2;}
	.st5{fill:#808184;}
	.st6{font-family:'MyriadPro-Regular';}
	.st7{font-size:30.9988px;}
</style>
<g id="BACKGROUND">
</g>
<g id="OBJECTS">
	<g>
		<path class="st0" d="M446.08,198.21H287.05c-4.63,0-8.42-3.79-8.42-8.42v-7.1c0-4.63,3.79-8.42,8.42-8.42h159.02
			c4.63,0,8.42,3.79,8.42,8.42v7.1C454.49,194.42,450.71,198.21,446.08,198.21z"/>
		<path class="st1" d="M441.29,198.21H282.27c-4.63,0-8.42-3.79-8.42-8.42v-7.1c0-4.63,3.79-8.42,8.42-8.42h159.02
			c4.63,0,8.42,3.79,8.42,8.42v7.1C449.71,194.42,445.92,198.21,441.29,198.21z"/>
		<path class="st2" d="M279.9,189.8h152.44c1.38,0,2.5-1.13,2.5-2.5v-2.11c0-1.38-1.13-2.5-2.5-2.5H279.9c-1.38,0-2.5,1.13-2.5,2.5
			v2.11C277.4,188.67,278.53,189.8,279.9,189.8z"/>
		<path class="st3" d="M376.26,64.7c24.4,0,31.04,22.27,31.04,48.81s0,31.04,0,44.3c0,13.27,6.63,28.43,21.8,28.43H283.15V64.7
			H376.26z"/>
		<path class="st4" d="M115.41,400.79l11.7-13.15l11.7,13.15l11.7-13.15l11.7,13.15l11.7-13.15l11.7,13.15l11.7-13.15l11.7,13.15
			l11.7-13.15l11.7,13.15l11.7-13.15l11.7,13.15l11.7-13.15l11.7,13.15l11.7-13.15l11.7,13.15l11.7-13.15l11.7,13.15h0
			c0,0,0-192.04,0-241.33c0-49.28,3.79-94.77,50.23-94.77H165.64c-46.44,0-50.23,45.49-50.23,94.77
			C115.41,208.75,115.41,400.79,115.41,400.79z"/>
	</g>
	<rect x="131.07" y="192.5" class="st5" width="170.65" height="0.96"/>
	<g>
		<circle class="st5" cx="135.16" cy="204.94" r="1.28"/>
		<circle class="st5" cx="141.93" cy="204.94" r="1.28"/>
		<path class="st5" d="M149.97,204.94c0,0.7-0.57,1.28-1.28,1.28c-0.7,0-1.28-0.57-1.28-1.28c0-0.7,0.57-1.28,1.28-1.28
			C149.4,203.67,149.97,204.24,149.97,204.94z"/>
		<circle class="st5" cx="155.47" cy="204.94" r="1.28"/>
		<path class="st5" d="M163.51,204.94c0,0.7-0.57,1.28-1.28,1.28c-0.7,0-1.28-0.57-1.28-1.28c0-0.7,0.57-1.28,1.28-1.28
			C162.94,203.67,163.51,204.24,163.51,204.94z"/>
		<circle class="st5" cx="169.01" cy="204.94" r="1.28"/>
		<path class="st5" d="M177.05,204.94c0,0.7-0.57,1.28-1.28,1.28c-0.7,0-1.28-0.57-1.28-1.28c0-0.7,0.57-1.28,1.28-1.28
			C176.48,203.67,177.05,204.24,177.05,204.94z"/>
		<circle class="st5" cx="182.55" cy="204.94" r="1.28"/>
		<circle class="st5" cx="189.32" cy="204.94" r="1.28"/>
		<circle class="st5" cx="196.09" cy="204.94" r="1.28"/>
		<circle class="st5" cx="202.86" cy="204.94" r="1.28"/>
		<circle class="st5" cx="209.63" cy="204.94" r="1.28"/>
		<circle class="st5" cx="216.4" cy="204.94" r="1.28"/>
		<circle class="st5" cx="223.17" cy="204.94" r="1.28"/>
		<circle class="st5" cx="229.94" cy="204.94" r="1.28"/>
		<circle class="st5" cx="236.71" cy="204.94" r="1.28"/>
		<circle class="st5" cx="243.48" cy="204.94" r="1.28"/>
		<circle class="st5" cx="250.25" cy="204.94" r="1.28"/>
		<circle class="st5" cx="257.02" cy="204.94" r="1.28"/>
		<path class="st5" d="M265.06,204.94c0,0.7-0.57,1.28-1.28,1.28c-0.7,0-1.28-0.57-1.28-1.28c0-0.7,0.57-1.28,1.28-1.28
			C264.49,203.67,265.06,204.24,265.06,204.94z"/>
		<circle class="st5" cx="270.56" cy="204.94" r="1.28"/>
		<path class="st5" d="M278.6,204.94c0,0.7-0.57,1.28-1.28,1.28c-0.7,0-1.28-0.57-1.28-1.28c0-0.7,0.57-1.28,1.28-1.28
			C278.03,203.67,278.6,204.24,278.6,204.94z"/>
		<circle class="st5" cx="284.1" cy="204.94" r="1.28"/>
		<circle class="st5" cx="290.87" cy="204.94" r="1.28"/>
		<circle class="st5" cx="297.64" cy="204.94" r="1.28"/>
	</g>
	<g>
		<circle class="st5" cx="135.16" cy="324.9" r="1.28"/>
		<circle class="st5" cx="141.93" cy="324.9" r="1.28"/>
		<path class="st5" d="M149.97,324.9c0,0.7-0.57,1.28-1.28,1.28c-0.7,0-1.28-0.57-1.28-1.28c0-0.7,0.57-1.28,1.28-1.28
			C149.4,323.62,149.97,324.19,149.97,324.9z"/>
		<circle class="st5" cx="155.47" cy="324.9" r="1.28"/>
		<path class="st5" d="M163.51,324.9c0,0.7-0.57,1.28-1.28,1.28c-0.7,0-1.28-0.57-1.28-1.28c0-0.7,0.57-1.28,1.28-1.28
			C162.94,323.62,163.51,324.19,163.51,324.9z"/>
		<circle class="st5" cx="169.01" cy="324.9" r="1.28"/>
		<path class="st5" d="M177.05,324.9c0,0.7-0.57,1.28-1.28,1.28c-0.7,0-1.28-0.57-1.28-1.28c0-0.7,0.57-1.28,1.28-1.28
			C176.48,323.62,177.05,324.19,177.05,324.9z"/>
		<circle class="st5" cx="182.55" cy="324.9" r="1.28"/>
		<circle class="st5" cx="189.32" cy="324.9" r="1.28"/>
		<circle class="st5" cx="196.09" cy="324.9" r="1.28"/>
		<circle class="st5" cx="202.86" cy="324.9" r="1.28"/>
		<circle class="st5" cx="209.63" cy="324.9" r="1.28"/>
		<circle class="st5" cx="216.4" cy="324.9" r="1.28"/>
		<circle class="st5" cx="223.17" cy="324.9" r="1.28"/>
		<circle class="st5" cx="229.94" cy="324.9" r="1.28"/>
		<circle class="st5" cx="236.71" cy="324.9" r="1.28"/>
		<circle class="st5" cx="243.48" cy="324.9" r="1.28"/>
		<circle class="st5" cx="250.25" cy="324.9" r="1.28"/>
		<circle class="st5" cx="257.02" cy="324.9" r="1.28"/>
		<path class="st5" d="M265.06,324.9c0,0.7-0.57,1.28-1.28,1.28c-0.7,0-1.28-0.57-1.28-1.28c0-0.7,0.57-1.28,1.28-1.28
			C264.49,323.62,265.06,324.19,265.06,324.9z"/>
		<circle class="st5" cx="270.56" cy="324.9" r="1.28"/>
		<path class="st5" d="M278.6,324.9c0,0.7-0.57,1.28-1.28,1.28c-0.7,0-1.28-0.57-1.28-1.28c0-0.7,0.57-1.28,1.28-1.28
			C278.03,323.62,278.6,324.19,278.6,324.9z"/>
		<circle class="st5" cx="284.1" cy="324.9" r="1.28"/>
		<circle class="st5" cx="290.87" cy="324.9" r="1.28"/>
		<circle class="st5" cx="297.64" cy="324.9" r="1.28"/>
	</g>
	<text transform="matrix(1 0 0 1 140.6516 253.0771)"><tspan x="0" y="0" class="st6 st7">NO INVOICE</tspan><tspan x="0" y="37.2" class="st6 st7">     FOUND </tspan></text>
</g>
</svg>
